<svg xmlns="http://www.w3.org/2000/svg" width="450" height="20" viewBox="0 0 450 20"><path fill="#B9BABA" d="M173 6l-4 4h2l2-2 2 2h2z"/><path fill="#D1D2D2" d="M181 10l4-4h-2l-2 2-2-2h-2z"/><path fill="#B9BABA" d="M157 6l-4 4h2l2-2 2 2h2z"/><path fill="#D1D2D2" d="M165 10l4-4h-2l-2 2-2-2h-2z"/><path fill="#B9BABA" d="M141 6l-4 4h2l2-2 2 2h2z"/><path fill="#D1D2D2" d="M149 10l4-4h-2l-2 2-2-2h-2z"/><path fill="#B9BABA" d="M125 6l-4 4h2l2-2 2 2h2z"/><path fill="#D1D2D2" d="M133 10l4-4h-2l-2 2-2-2h-2z"/><path fill="#B9BABA" d="M109 6l-4 4h2l2-2 2 2h2z"/><path fill="#D1D2D2" d="M117 10l4-4h-2l-2 2-2-2h-2z"/><path fill="#B9BABA" d="M93 6l-4 4h2l2-2 2 2h2z"/><path fill="#D1D2D2" d="M101 10l4-4h-2l-2 2-2-2h-2z"/><g><path fill="#B9BABA" d="M77 6l-4 4h2l2-2 2 2h2z"/><path fill="#D1D2D2" d="M85 10l4-4h-2l-2 2-2-2h-2z"/></g><g><path fill="#B9BABA" d="M61 6l-4 4h2l2-2 2 2h2z"/><path fill="#D1D2D2" d="M69 10l4-4h-2l-2 2-2-2h-2z"/></g><g><path fill="#B9BABA" d="M45 6l-4 4h2l2-2 2 2h2z"/><path fill="#D1D2D2" d="M53 10l4-4h-2l-2 2-2-2h-2z"/></g><g><path fill="#B9BABA" d="M29 6l-4 4h2l2-2 2 2h2z"/><path fill="#D1D2D2" d="M37 10l4-4h-2l-2 2-2-2h-2z"/></g><g><path fill="#B9BABA" d="M13 6l-4 4h2l2-2 2 2h2z"/><path fill="#D1D2D2" d="M21 10l4-4h-2l-2 2-2-2h-2z"/></g><g><path fill="#D1D2D2" d="M5 10l4-4H7L5 8 3 6H1z"/></g><g><path fill="#B9BABA" d="M437 6l-4 4h2l2-2 2 2h2z"/><path fill="#D1D2D2" d="M445 10l4-4h-2l-2 2-2-2h-2z"/><path fill="#B9BABA" d="M421 6l-4 4h2l2-2 2 2h2z"/><path fill="#D1D2D2" d="M429 10l4-4h-2l-2 2-2-2h-2z"/><path fill="#B9BABA" d="M405 6l-4 4h2l2-2 2 2h2z"/><path fill="#D1D2D2" d="M413 10l4-4h-2l-2 2-2-2h-2z"/><path fill="#B9BABA" d="M389 6l-4 4h2l2-2 2 2h2z"/><path fill="#D1D2D2" d="M397 10l4-4h-2l-2 2-2-2h-2z"/><path fill="#B9BABA" d="M373 6l-4 4h2l2-2 2 2h2z"/><path fill="#D1D2D2" d="M381 10l4-4h-2l-2 2-2-2h-2z"/><path fill="#B9BABA" d="M357 6l-4 4h2l2-2 2 2h2z"/><path fill="#D1D2D2" d="M365 10l4-4h-2l-2 2-2-2h-2z"/><g><path fill="#B9BABA" d="M341 6l-4 4h2l2-2 2 2h2z"/><path fill="#D1D2D2" d="M349 10l4-4h-2l-2 2-2-2h-2z"/></g><g><path fill="#B9BABA" d="M325 6l-4 4h2l2-2 2 2h2z"/><path fill="#D1D2D2" d="M333 10l4-4h-2l-2 2-2-2h-2z"/></g><g><path fill="#B9BABA" d="M309 6l-4 4h2l2-2 2 2h2z"/><path fill="#D1D2D2" d="M317 10l4-4h-2l-2 2-2-2h-2z"/></g><g><path fill="#B9BABA" d="M293 6l-4 4h2l2-2 2 2h2z"/><path fill="#D1D2D2" d="M301 10l4-4h-2l-2 2-2-2h-2z"/></g><g><path fill="#B9BABA" d="M277 6l-4 4h2l2-2 2 2h2z"/><path fill="#D1D2D2" d="M285 10l4-4h-2l-2 2-2-2h-2z"/></g><g><path fill="#D1D2D2" d="M269 10l4-4h-2l-2 2-2-2h-2z"/></g></g><g><path fill="#D1D2D2" d="M197 8l6 6h6L197 2z"/><path fill="#B9BABA" d="M197 2l-12 12h6l6-6z"/><path fill="#D1D2D2" d="M253 8l6 6h6L253 2z"/><path fill="#B9BABA" d="M253 2l-12 12h6l6-6z"/><g><path fill="#D1D2D2" d="M210.242 0H205l20 20v-5.242zM225 10L215 0h-3.243L225 13.242z"/><path fill="#B9BABA" d="M239.758 0L225 14.758V20l20-20zM238.243 0H235l-10 10v3.242z"/></g></g></svg>