<svg xmlns="http://www.w3.org/2000/svg" xmlns:xlink="http://www.w3.org/1999/xlink" width="240" height="109.342" viewBox="0 0 240 109.342"><defs><path id="a" d="M0 .001h240v109.341H0z"/></defs><clipPath id="b"><use xlink:href="#a" overflow="visible"/></clipPath><path clip-path="url(#b)" fill="#D46F0E" d="M202.328 74.978c-1.191.786-.268 1.986.988 1.36 2.121-1.059 4.684-5.162 7.366-7.563-.802 2.892-6.815 11.944-10.943 9.324-4.127-2.62 1.875-5.059 2.589-3.121M.526 109.334h2.983v-4.781c.278.06.632.078 1.028.078 1.778 0 3.299-.453 4.327-1.4.809-.732 1.224-1.839 1.224-3.162 0-1.305-.554-2.411-1.423-3.063-.888-.731-2.212-1.086-4.069-1.086-1.838 0-3.141.117-4.07.276v13.138zm2.983-11.023c.217-.061.632-.1 1.226-.1 1.521 0 2.37.73 2.37 1.956 0 1.345-.988 2.154-2.588 2.154-.455 0-.75-.021-1.008-.081v-3.929zm21.336 7.606l1.028 3.417h3.24L24.964 96.02h-3.931l-4.07 13.314h3.121l.929-3.417h3.832zm-3.397-2.253l.809-2.825c.198-.771.415-1.778.594-2.567h.058c.197.771.435 1.775.652 2.567l.829 2.825h-2.942zm26.847 5.67h2.923l-.711-13.314h-3.95l-1.402 4.424a72.968 72.968 0 0 0-1.266 4.781h-.079a56.826 56.826 0 0 0-1.125-4.764l-1.304-4.441h-4.01l-.85 13.314h2.785l.257-5.058c.079-1.661.158-3.716.217-5.513h.04a67.03 67.03 0 0 0 1.205 5.195l1.422 5.156h2.351l1.62-5.195a84.209 84.209 0 0 0 1.502-5.156h.04c0 1.956.059 3.873.117 5.472l.218 5.099zm18.077-3.417l1.027 3.417h3.239L66.489 96.02h-3.931l-4.069 13.314h3.121l.929-3.417h3.833zm-3.399-2.253l.81-2.825c.198-.771.415-1.778.593-2.567h.06c.197.771.435 1.775.65 2.567l.831 2.825h-2.944zm15.37 5.67h2.983v-4.781c.276.06.633.078 1.027.078 1.779 0 3.3-.453 4.327-1.4.81-.732 1.225-1.839 1.225-3.162 0-1.305-.553-2.411-1.422-3.063-.89-.731-2.214-1.086-4.07-1.086-1.837 0-3.141.117-4.07.276v13.138zm2.983-11.023c.218-.061.633-.1 1.224-.1 1.522 0 2.371.73 2.371 1.956 0 1.345-.987 2.154-2.588 2.154-.453 0-.751-.021-1.007-.081v-3.929zm14.442-2.291v13.314h3.002v-5.552h4.959v5.552h3.003V96.02h-3.003v5.135H98.77V96.02h-3.002zm21.571 13.314c.218-.414.337-.731.475-1.128.395-1.086.731-2.805 1.58-3.594.356-.336.829-.513 1.423-.513h.73v5.234h2.983V96.218c-.967-.181-2.35-.298-3.812-.298-1.739 0-3.338.276-4.366 1.048-.83.632-1.383 1.599-1.383 2.824 0 1.917 1.324 2.964 2.805 3.24v.061a3.2 3.2 0 0 0-1.107.671c-1.006.967-1.322 2.547-1.856 4.067-.178.556-.396 1.068-.672 1.503h3.2zm4.208-7.469c-.275.061-.691.061-1.066.061-1.383 0-2.51-.634-2.51-1.857 0-1.362 1.047-1.896 2.351-1.896.614 0 1.008.059 1.225.117v3.575zM227.514 40.548c.841-1.052 6.603 5.426-4.249 10.01 7.823.883 11.735-7.612 8.706-13.332-3.029-5.72-9.967-3.028-11.482-1.093-1.514 1.935-1.388 5.427 1.809 5.741 3.196.314 5.216-1.326 5.216-1.326M110.125 7.613c-6.563-.813-6.354 5.542-5.063 7.75 1.292 2.208 4.008 3.154 7.959 4.396 3.583 1.125 5.583 1.702 5.583 5.563 0 2.39-2.854 3.977-2.854 3.977 6.271.232 6.823-5.773 5.168-9.267.736.551 2.207.734 2.758-.368 1.285-2.388-2.503-3.937-3.322-5.925-.583-1.417-.355-2.346.564-3.813-5.168-.104-2.695 5.246-3.307 5.696-.611.45-7.153.304-6.257-4.279-.185.368-.678-2.26-1.229-3.73"/><path clip-path="url(#b)" fill="#F9B034" d="M112.241 21.001c1.832.396 4.988 1.258 5.187 3.257 0 1.287-.919 2.205-2.206 2.572-1.653.368-.663 2.696.799 2.45 3.333-.563 3.889-4 3.154-6.021-.919-2.023-3.507-2.973-5.79-3.596-3.01-.821-6.386-2.118-7.489-3.404-3.124-3.675-.438-8.875 3.997-8.54 0 0-.886.785-.643 1.937.458 2.166 2.832 2.599 4.396 1.229 1.032-.904 1.303-3.277-.261-5.186-2.614-3.189-11.221-.737-10.853 6.248 0 5.478 6.76 8.416 9.709 9.054M221.072 45.023c2.94 2.204 7.35 1.654 7.535-2.388.367-4.043-5.331-4.779-7.535-2.022-1.103-1.104-.736-2.941.184-4.228.92-.918 2.941-2.388 4.963-1.285-1.104.551-2.022 2.206-1.471 2.571 2.389-.918 5.329-.55 6.247.734 2.757 3.126 1.104 8.454-3.492 10.845-2.388 1.285-5.695 1.47-8.268.552 0 1.1.552 4.041 3.859 4.777-4.41 1.471-9.005 3.307-10.842 7.165.551-.182 2.571.553 5.696-.549-2.39 4.227-8.086 1.835-8.636 5.513 1.47 0 1.836.917 3.306.183-2.205 1.838-3.491 3.859-4.593 5.328-.366.552-.918 1.286-1.655 2.39-1.653 2.206-4.041 4.961-6.429 3.123-1.105-.733-.921-1.836-.369-2.203.918-.736 2.572-.552 2.757-.552 1.286-.92.552-2.206-.735-2.388-1.471-.37-3.31.733-3.676 2.203-.92 2.758 2.388 5.331 5.33 4.229 1.101-.37 2.203-1.289 3.122-2.022 1.103-1.103 2.021-2.021 2.573-2.941 0 1.654.369 2.758 1.104 3.675.55.737 1.469 1.654 3.49 1.838 2.207.186 3.859-.367 5.881-1.101 1.47-.367 2.758-1.104 3.858-1.104 2.023 0 2.575.737 3.31 1.472 1.102.919 3.308 1.287 4.776.919.737-.186 1.472-.553 2.021-1.104l1.839-1.469c-.918-1.286-2.571-.184-3.123-1.101-1.287-1.656 1.653-2.759-.919-4.965 4.41-6.064 1.837-10.474.367-10.291-.367 0 0 .553.183 1.104.184 1.286-1.287 2.758-2.756 3.674-1.471.735-2.755.552-4.041 1.472-.736.367-1.472 1.102-1.839 2.021-1.471.183-.367-2.94-3.125-2.572-.919 2.572-2.388 2.755-3.307 4.041-1.104 1.287-.367 2.94.552 3.677 1.101.917 2.573.735 3.122 1.47.37.552-3.307 2.572-6.062 2.391-2.022 0-3.492-1.472-3.492-3.86.183-1.838 1.101-3.125 2.388-4.41 3.308-3.308 8.086-5.695 11.945-8.636 4.41-3.31 7.902-7.353 9.557-12.497 1.469-4.227 1.285-8.638-1.471-12.496-.919-1.654-4.042-4.043-6.064-4.595-.184.552-.184.919 0 1.286-1.838-.183-3.676 0-5.147.734-2.203 1.288-4.042 3.859-3.675 6.618.185 1.835 1.287 3.486 2.757 4.774"/><path clip-path="url(#b)" fill="#622F00" d="M64.687 65.787l-1.471 2.206c1.471.37 2.39 2.573 2.575 4.596.733 6.982-9.189 8.636-14.334 8.083-1.104-.182-2.206-.366-3.126-.733-7.165-2.021-10.841-6.982-15.252-11.394-7.165-7.349-13.782-15.987-22.418-17.643-.186-.183-.368-.183-.368-.366.735-1.286 1.47-2.939 2.389-4.595 3.124-5.514 8.268-13.781 13.232-17.457 2.572-1.837 5.879-2.022 7.717-1.286 2.389.918 3.308 4.042.919 7.167l.734.367 6.8-7.719c-2.94-4.962-7.166-5.695-11.026-4.962-4.411.734-8.454 5.514-11.394 9.924C15.99 37.488 9.742 47.78 7.167 53.844c3.125 1.47 11.394 10.659 13.599 13.232C28.669 76.081 35.834 83.248 48.33 83.8h2.207c5.88 0 11.577-1.841 14.885-6.067 1.286-1.468 2.021-3.859 2.021-6.063.183-2.572-.735-4.778-2.756-5.883"/><path fill="#622F00" d="M218.5 25.545h17.273v5.695H218.5zM29.22 62.298h5.697l25.177-32.344v32.344h33.078v-5.88H65.791V45.391h19.661V39.51H65.791V28.484h27.381v-5.881H60.094zM0 25.545h5.882v57.886H0z"/><g><defs><path id="c" d="M0 .001h240v109.341H0z"/></defs><clipPath id="d"><use xlink:href="#c" overflow="visible"/></clipPath><path clip-path="url(#d)" fill="#622F00" d="M184.134 40.98c0-6.982 5.697-12.496 12.681-12.496 3.857 0 7.349 1.653 9.555 4.41 1.839 2.206 2.941 4.962 2.941 8.086 0 2.94-1.102 5.88-2.941 8.086-2.206 2.757-5.698 4.41-9.555 4.41-6.984.001-12.681-5.513-12.681-12.496M206.37 56.6c5.146-3.308 8.638-9.003 8.638-15.619 0-6.615-3.492-12.312-8.638-15.62-2.755-1.652-6.064-2.758-9.555-2.758-10.106 0-18.377 8.271-18.377 18.378 0 10.108 8.271 18.377 18.377 18.377 3.491-.001 6.8-1.102 9.555-2.758"/></g><path fill="#622F00" d="M196.815 80.49h-4.227v8.821h5.881v-5.88h35.651v5.88H240V80.49zM128.821 25.545L104.748 72.22V25.545h-5.88v57.886h5.88l24.073-46.676v46.676h5.882V25.545zM170.352 71.853l-24.073-46.309h-5.697v57.887h5.697V36.754l24.073 46.677h5.698V25.544h-5.698z"/><path fill="#622F00" d="M137.643 0l-10.291 19.663h4.593l2.757-5.33v11.212h5.88V14.333l2.756 5.33h4.411zM137.643 83.431h-2.941v25.911l2.941-5.147 2.939 5.147V83.431z"/><g><defs><path id="e" d="M0 .001h240v109.341H0z"/></defs><clipPath id="f"><use xlink:href="#e" overflow="visible"/></clipPath><path clip-path="url(#f)" fill="#D46F0E" d="M235.009 44.511c-.979 7.832-7.883 14.894-16.509 20.06 2.75-3.166 8.857-7.445 9.803-10.028-2.472 1.388-5.139 2.592-5.162 1.861-.024-.73 2.656-1.049 2.071-2.07-.752-1.318 1.475-1.368 4.56-3.215 3.085-1.847 4.16-4.259 5.237-6.608M232.996 64.571c.168 1.924-1.749 5.533-3.124 6.771-2.268 2.046-4.005 3.053-5.117 3.097-1.112.045-.931-2.919 2.182-3.853 3.114-.933 4.512-2.825 6.059-6.015"/></g></svg>