<svg xmlns="http://www.w3.org/2000/svg" width="232" height="30" viewBox="0 0 232 30"><g fill="#8D0700"><path d="M7.078 4.827c.266.42.406 1.079.406 1.639 0 1.331-.392 2.325-.966 3.054-.477.602-1.037 1.022-1.625 1.274-.658.266-.995.294-1.527.294-.504 0-.911-.112-1.247-.309C1.348 10.331.998 9.434.998 8.398c0-1.373.49-2.521 1.148-3.25.855-.952 1.99-1.358 2.817-1.358 1.064 0 1.666.336 2.115 1.037zM2.231 8.203c0 .798.224 1.513.603 1.933.224.252.504.35.827.35.756 0 1.442-.448 1.905-1.19.448-.714.687-1.653.687-2.718 0-.49-.126-.938-.238-1.247-.252-.658-.729-.966-1.19-.966-1.529 0-2.594 1.821-2.594 3.838zM8.867 4.407s.7-.546 2.227-.546c0 0 .014.112.014.308 0 .672-.112 2.283-.981 4.594 0 0 .042.112.225.112 0 0 .462-1.429 1.289-2.815.686-1.149 1.653-2.199 2.872-2.199.728 0 1.05.42 1.05 1.05 0 .869-.896 2.956-.896 4.23 0 .84.435.995.743.995.14 0 .28-.028.322-.042.07.084.07.196.07.28-.616.616-2.269.63-2.297.63a3.78 3.78 0 0 1-.098-.91c0-1.961.911-4.048.911-4.65 0-.406-.252-.588-.504-.588-.588 0-1.261.644-1.835 1.527-.813 1.247-1.457 2.843-1.457 3.922 0 .252.028.462.098.63-.238.042-.462.07-.672.07-.448 0-.785-.084-.827-.098.042-2.312.771-3.754.771-5.169 0-.911-.364-1.106-.687-1.106-.084 0-.182.014-.252.028-.086-.085-.086-.211-.086-.253zM18.723 5.611c0-.827-.35-1.022-.658-1.022a.758.758 0 0 0-.266.042c-.084-.084-.084-.21-.084-.252 0 0 .7-.546 2.227-.546 0 0 .028.14.028.435 0 .644-.126 2.031-.967 4.244 0 0 .042.112.224.112 0 0 1.121-4.791 3.726-4.791.729 0 1.135.588 1.135 1.359 0 3.992-2.718 5.883-4.342 5.883-.49 0-.617-.07-.883-.098a12.263 12.263 0 0 0-.238 2.465c0 .729.126 1.415.532 1.919a3.94 3.94 0 0 1-.785.084c-.462 0-.813-.07-.854-.084a7.486 7.486 0 0 1-.154-1.611c0-2.479.882-5.393 1.247-7.214.07-.378.112-.673.112-.925zm.322 4.538c.196.098.393.267.896.267.588 0 1.191-.098 1.611-.49.967-.883 1.387-2.662 1.387-3.811 0-.826-.266-1.289-.686-1.289-1.149 0-2.241 2.255-2.97 4.524-.07.212-.196.589-.238.799zM25.568 7.796c.238-1.022.658-1.849 1.232-2.507.896-1.009 2.143-1.513 2.97-1.513 1.499 0 2.073.336 2.073.336s-.182.252-.462 1.709c-.21 1.093-.378 2.031-.49 2.983a4.234 4.234 0 0 0-.042.561c0 .742.28.938.616.938.112 0 .224-.028.35-.056.056.042.084.168.084.252 0 0-.756.518-2.311.546 0 0-.014-.14-.014-.378 0-.687.126-2.255 1.051-4.482 0 0-.042-.112-.224-.112 0 0-.28 1.037-.827 2.199-.63 1.331-1.583 2.773-2.969 2.773-.42 0-.714-.21-.925-.546-.168-.28-.28-.714-.28-1.177 0-.531.056-1.035.168-1.526zm4.861-3.151c-.196-.098-.602-.182-.98-.182-.813 0-1.597.435-2.087 1.107-.574.798-.869 1.933-.869 3.067 0 .532.14 1.415.798 1.415.672 0 1.373-.925 1.877-1.947.364-.742.659-1.527.785-2.059.21-.869.476-1.401.476-1.401zM39.39 5.233c0 1.737-2.186 1.905-2.186 1.905v.07s1.737.126 1.737 1.597c0 1.429-1.667 2.27-2.984 2.27-1.541 0-2.437-.869-2.437-2.465 0-2.213 1.205-4.777 4.118-4.777.953-.001 1.752.419 1.752 1.4zm-3.432 2.255c-.49 0-.938.028-1.219.084 0 0-.042.294-.042.729 0 .924.224 2.283 1.527 2.283 1.121 0 1.555-.911 1.555-1.737 0-1.191-.939-1.359-1.821-1.359zm-.715-.406c1.135 0 2.97-.406 2.97-1.849 0-.63-.364-.924-.869-.924-.868 0-2.199.953-2.493 2.759.112.014.252.014.392.014zM40.898 7.796c.238-1.022.658-1.849 1.232-2.507.896-1.009 2.143-1.513 2.97-1.513 1.499 0 2.073.336 2.073.336s-.182.252-.462 1.709c-.21 1.093-.378 2.031-.49 2.983a4.234 4.234 0 0 0-.042.561c0 .742.28.938.616.938.112 0 .224-.028.35-.056.056.042.084.168.084.252 0 0-.756.518-2.311.546 0 0-.014-.14-.014-.378 0-.687.126-2.255 1.051-4.482 0 0-.042-.112-.224-.112 0 0-.28 1.037-.827 2.199-.63 1.331-1.583 2.773-2.969 2.773-.42 0-.714-.21-.925-.546-.168-.28-.28-.714-.28-1.177 0-.531.056-1.035.168-1.526zm4.861-3.151c-.196-.098-.602-.182-.98-.182-.813 0-1.597.435-2.087 1.107-.574.798-.869 1.933-.869 3.067 0 .532.14 1.415.798 1.415.672 0 1.373-.925 1.877-1.947.364-.742.659-1.527.785-2.059.21-.869.476-1.401.476-1.401zM56.72 10.023c0-1.849.924-3.936.924-4.623 0-.406-.28-.588-.532-.588-1.19 0-2.969 3.656-2.969 5.491 0 .182.028.392.098.63-.238.042-.448.07-.658.07-.448 0-.784-.07-.827-.084v-.182c0-1.891.771-3.417.771-4.986 0-.883-.378-1.121-.714-1.121-.084 0-.154.014-.224.028-.084-.084-.084-.21-.084-.252 0 0 .7-.546 2.227-.546 0 0 .014.112.014.308 0 .532-.126 2.283-.995 4.594 0 0 .056.112.238.112 0 0 .14-.49.392-1.163.561-1.485 1.723-3.852 3.418-3.852.729 0 1.051.42 1.051 1.05s-.561 1.737-.896 2.872a10.85 10.85 0 0 0-.238.98s.098.112.252.112c0 0 .21-.672.308-.953.098-.294.238-.588.393-.966.602-1.415 1.737-3.096 3.096-3.096.742 0 1.079.392 1.079 1.022 0 .854-.896 3.012-.896 4.286 0 .827.504.967.826.967.098 0 .224-.028.266-.042.07.098.07.196.07.28-.785.616-2.255.63-2.297.63a4.005 4.005 0 0 1-.112-.938c0-.616.084-1.218.21-1.793.28-1.247.728-2.409.728-2.857 0-.378-.224-.602-.56-.602-.588 0-1.429 1.064-2.045 2.325-.504 1.05-.91 2.241-.91 3.067 0 .252.042.561.112.729-.238.042-.462.07-.658.07-.434 0-.742-.07-.785-.084a4.651 4.651 0 0 1-.073-.895zM70.637 5.233c0 1.737-2.186 1.905-2.186 1.905v.07s1.737.126 1.737 1.597c0 1.429-1.667 2.27-2.984 2.27-1.541 0-2.437-.869-2.437-2.465 0-2.213 1.205-4.777 4.118-4.777.953-.001 1.752.419 1.752 1.4zm-3.432 2.255c-.49 0-.938.028-1.219.084 0 0-.042.294-.042.729 0 .924.224 2.283 1.527 2.283 1.121 0 1.555-.911 1.555-1.737 0-1.191-.938-1.359-1.821-1.359zm-.714-.406c1.135 0 2.97-.406 2.97-1.849 0-.63-.364-.924-.869-.924-.868 0-2.199.953-2.493 2.759.111.014.252.014.392.014zM78.183 4.827c.266.42.406 1.079.406 1.639 0 1.331-.392 2.325-.966 3.054-.477.602-1.037 1.022-1.625 1.274-.658.266-.995.294-1.527.294-.504 0-.911-.112-1.247-.309-.771-.448-1.121-1.345-1.121-2.381 0-1.373.49-2.521 1.148-3.25.854-.953 1.989-1.359 2.816-1.359 1.066.001 1.668.337 2.116 1.038zm-4.847 3.376c0 .798.224 1.513.603 1.933.224.252.504.35.827.35.756 0 1.442-.448 1.905-1.19.448-.714.687-1.653.687-2.718 0-.49-.126-.938-.238-1.247-.252-.658-.729-.966-1.19-.966-1.529 0-2.594 1.821-2.594 3.838zM81.232 5.611c0-.827-.351-1.022-.659-1.022a.758.758 0 0 0-.266.042c-.084-.084-.084-.21-.084-.252 0 0 .7-.546 2.227-.546 0 0 .028.14.028.435 0 .644-.126 2.031-.967 4.244 0 0 .042.112.224.112 0 0 1.121-4.791 3.726-4.791.729 0 1.135.588 1.135 1.359 0 3.992-2.718 5.883-4.342 5.883-.49 0-.617-.07-.883-.098a12.263 12.263 0 0 0-.238 2.465c0 .729.126 1.415.532 1.919a3.94 3.94 0 0 1-.785.084c-.462 0-.813-.07-.854-.084a7.486 7.486 0 0 1-.154-1.611c0-2.479.882-5.393 1.247-7.214.071-.378.113-.673.113-.925zm.322 4.538c.196.098.393.267.896.267.588 0 1.191-.098 1.611-.49.967-.883 1.387-2.662 1.387-3.811 0-.826-.266-1.289-.686-1.289-1.149 0-2.241 2.255-2.97 4.524-.069.212-.196.589-.238.799zM88.33 8.595c.266-.854.588-1.681.771-2.549.042-.238.07-.42.07-.588 0-.672-.35-.854-.672-.854-.084 0-.168.014-.238.028-.084-.084-.084-.21-.084-.252 0 0 .7-.546 2.227-.546 0 0 .042.238.042.63a7.1 7.1 0 0 1-.294 1.961c-.238.826-.784 2.269-.784 2.969 0 .813.336 1.009.63 1.009a.654.654 0 0 0 .238-.042c.084.084.084.252.084.252-.336.224-1.149.448-1.835.448a2.36 2.36 0 0 1-.462-.042s-.028-.168-.028-.462a6.274 6.274 0 0 1 .335-1.962zm1.106-7.242c0 .616.378.84.841.84.462 0 .854-.224.854-.84 0-.617-.393-.854-.854-.854-.463 0-.841.237-.841.854zM98.091 5.233c0 1.737-2.186 1.905-2.186 1.905v.07s1.737.126 1.737 1.597c0 1.429-1.667 2.27-2.984 2.27-1.541 0-2.437-.869-2.437-2.465 0-2.213 1.205-4.777 4.118-4.777.953-.001 1.752.419 1.752 1.4zm-3.432 2.255c-.49 0-.938.028-1.219.084 0 0-.042.294-.042.729 0 .924.224 2.283 1.527 2.283 1.121 0 1.555-.911 1.555-1.737 0-1.191-.939-1.359-1.821-1.359zm-.715-.406c1.135 0 2.97-.406 2.97-1.849 0-.63-.364-.924-.869-.924-.868 0-2.199.953-2.493 2.759.112.014.252.014.392.014zM105.69 5.569c-.392 2.185-1.289 5.449-2.633 5.449-.49 0-.854-.252-.854-.729 0-.518.308-.868.896-.91 0 .196.21.364.378.364.7 0 1.457-1.891 2.017-5.295 0 0-.182-.084-.701-.084v-.181c0-.084.014-.182.21-.196.462-.042 1.037-.07 1.527-.056l.729 5.365s2.409-4.356 2.998-5.281c0 0 .938-.112 1.177-.112 0 1.765-.896 3.852-.896 5.351 0 .757.434.896.756.896.14 0 .266-.028.308-.042.07.098.07.28.07.28-.756.588-2.297.63-2.297.63a3.66 3.66 0 0 1-.07-.813c0-1.485.672-3.824.91-5.21-.924 1.387-2.367 4.034-3.236 5.687-.07.14-.14.28-.21.406h-.336l-.743-5.519zM120.225 10.472c0 .014-.771.561-2.312.561 0 0-.014-.126-.014-.364 0-.672.126-2.185 1.05-4.455 0 0-.042-.112-.224-.112 0 0-.42 1.177-1.163 2.409-.771 1.275-1.891 2.521-3.25 2.521-.729 0-1.051-.42-1.051-1.051 0-.854 1.051-2.885 1.051-4.244 0-.854-.448-1.009-.771-1.009a.974.974 0 0 0-.28.042c-.07-.098-.07-.28-.07-.28.686-.462 1.541-.63 2.297-.63.042.126.098.588.098.91 0 1.849-1.106 3.992-1.106 4.791 0 .294.252.476.532.476.742 0 1.555-.771 2.227-1.835.756-1.191 1.317-2.675 1.317-3.642 0-.252-.028-.462-.098-.63.238-.042.462-.07.672-.07.448 0 .785.084.827.098 0 1.807-.63 3.417-.743 4.875-.014.112-.014.224-.014.322 0 .924.364 1.106.687 1.106.084 0 .182-.014.252-.028.072.071.086.197.086.239zM126.607 4.126c.294.196.518.504.518 1.008 0 .63-.476.925-1.022.925-.112 0-.224-.014-.35-.042.028-.084.126-.406.126-.756 0-.435-.154-.883-.854-.883-1.597 0-2.283 2.185-2.283 3.81 0 1.317.574 2.059 1.667 2.059 1.092 0 1.933-.742 1.933-.742s.182.378.182.392c-.617.63-1.737 1.177-2.9 1.177s-2.059-.771-2.059-2.479c0-2.619 1.667-4.805 3.488-4.805.49 0 1.12.042 1.554.336zM132.627 10.023c0-1.849.924-3.936.924-4.623 0-.406-.28-.588-.532-.588-1.19 0-2.969 3.656-2.969 5.491 0 .182.028.392.098.63-.238.042-.448.07-.658.07-.448 0-.784-.07-.826-.084v-.182c0-1.891.77-3.417.77-4.986 0-.883-.378-1.121-.714-1.121-.084 0-.154.014-.224.028-.084-.084-.084-.21-.084-.252 0 0 .701-.546 2.227-.546 0 0 .014.112.014.308 0 .532-.126 2.283-.995 4.594 0 0 .056.112.238.112 0 0 .14-.49.392-1.163.561-1.485 1.723-3.852 3.418-3.852.729 0 1.051.42 1.051 1.05s-.561 1.737-.896 2.872a10.85 10.85 0 0 0-.238.98s.098.112.252.112c0 0 .21-.672.308-.953.098-.294.238-.588.393-.966.602-1.415 1.737-3.096 3.096-3.096.742 0 1.078.392 1.078 1.022 0 .854-.896 3.012-.896 4.286 0 .827.504.967.827.967.098 0 .224-.028.266-.042.07.098.07.196.07.28-.785.616-2.255.63-2.297.63a4.005 4.005 0 0 1-.112-.938c0-.616.084-1.218.21-1.793.28-1.247.728-2.409.728-2.857 0-.378-.224-.602-.56-.602-.588 0-1.429 1.064-2.045 2.325-.504 1.05-.911 2.241-.911 3.067 0 .252.042.561.112.729-.238.042-.462.07-.658.07-.434 0-.742-.07-.784-.084a4.651 4.651 0 0 1-.073-.895zM141.753 7.67c-.014.266-.014.476-.014.672.014.49.126.882.322 1.232.266.462.84.672 1.261.672 1.232 0 2.017-.742 2.017-.742s.196.378.182.392c-.252.294-1.457 1.177-2.801 1.177-.588 0-1.079-.168-1.415-.448-.574-.49-.742-1.303-.742-2.017 0-1.737.7-3.096 1.555-3.95.617-.616 1.359-.869 2.017-.869.813 0 1.317.168 1.653.519.21.21.322.532.322.938 0 2.283-3.488 2.423-4.23 2.423h-.127zm3.292-2.297c0-.771-.462-.995-1.008-.995-1.891 0-2.241 2.886-2.241 2.886 2.156-.028 3.249-.868 3.249-1.891zM153.25 11.046c-.854 0-.981-.686-.981-1.218 0-.827.267-2.031.911-3.53 0 0-.042-.112-.224-.112 0 0-1.723 4.847-4.398 4.847-.729 0-1.05-.42-1.05-1.051 0-.854 1.037-2.815 1.037-4.244 0-.854-.49-.995-.813-.995a.832.832 0 0 0-.238.028c-.07-.098-.07-.28-.07-.28.756-.588 2.283-.63 2.297-.63.07.28.098.588.098.91 0 1.849-1.093 3.992-1.093 4.791 0 .294.252.476.533.476 1.513 0 3.53-3.558 3.53-5.477 0-.252-.028-.462-.098-.63.238-.042.462-.07.672-.07.448 0 .785.084.827.098 0 .602-.07 1.205-.168 1.793-.238 1.331-.574 2.479-.574 3.74 0 .28.014.561.056.827.028.014.07.014.14.014.224 0 .644-.056.798-.154v1.597c0 .574-.182 1.821-2.759 1.821-1.079 0-1.429.392-1.429.924 0 .084.014.126.014.154l-.084.014c-.056.014-.098.014-.126.014-.112 0-.154-.056-.196-.224a2.665 2.665 0 0 1-.098-.645c0-.672.42-1.205 1.863-1.289 1.835-.112 2.283-.687 2.325-1.709-.142.098-.465.21-.702.21zM160.333 10.023c0-1.849.924-3.936.924-4.623 0-.406-.28-.588-.532-.588-1.19 0-2.969 3.656-2.969 5.491 0 .182.028.392.098.63-.238.042-.448.07-.658.07-.448 0-.784-.07-.827-.084v-.182c0-1.891.771-3.417.771-4.986 0-.883-.378-1.121-.714-1.121-.084 0-.154.014-.224.028-.084-.084-.084-.21-.084-.252 0 0 .7-.546 2.227-.546 0 0 .014.112.014.308 0 .532-.126 2.283-.995 4.594 0 0 .056.112.238.112 0 0 .14-.49.392-1.163.561-1.485 1.723-3.852 3.418-3.852.729 0 1.051.42 1.051 1.05s-.561 1.737-.896 2.872a10.85 10.85 0 0 0-.238.98s.098.112.252.112c0 0 .21-.672.308-.953.098-.294.238-.588.393-.966.602-1.415 1.737-3.096 3.096-3.096.742 0 1.079.392 1.079 1.022 0 .854-.896 3.012-.896 4.286 0 .827.504.967.826.967.098 0 .224-.028.266-.042.07.098.07.196.07.28-.785.616-2.255.63-2.297.63a4.005 4.005 0 0 1-.112-.938c0-.616.084-1.218.21-1.793.28-1.247.728-2.409.728-2.857 0-.378-.224-.602-.56-.602-.588 0-1.429 1.064-2.045 2.325-.504 1.05-.91 2.241-.91 3.067 0 .252.042.561.112.729-.238.042-.462.07-.658.07-.434 0-.742-.07-.785-.084a4.651 4.651 0 0 1-.073-.895zM174.249 5.233c0 1.737-2.186 1.905-2.186 1.905v.07s1.737.126 1.737 1.597c0 1.429-1.667 2.27-2.984 2.27-1.541 0-2.437-.869-2.437-2.465 0-2.213 1.205-4.777 4.118-4.777.953-.001 1.752.419 1.752 1.4zm-3.432 2.255c-.49 0-.938.028-1.219.084 0 0-.042.294-.042.729 0 .924.224 2.283 1.527 2.283 1.121 0 1.555-.911 1.555-1.737 0-1.191-.939-1.359-1.821-1.359zm-.714-.406c1.135 0 2.97-.406 2.97-1.849 0-.63-.364-.924-.869-.924-.868 0-2.199.953-2.493 2.759.111.014.251.014.392.014zM175.758 7.796c.238-1.022.658-1.849 1.232-2.507.896-1.009 2.143-1.513 2.97-1.513 1.499 0 2.073.336 2.073.336s-.182.252-.462 1.709c-.21 1.093-.378 2.031-.49 2.983a4.234 4.234 0 0 0-.042.561c0 .742.28.938.616.938.112 0 .224-.028.35-.056.056.042.084.168.084.252 0 0-.756.518-2.311.546 0 0-.014-.14-.014-.378 0-.687.126-2.255 1.051-4.482 0 0-.042-.112-.224-.112 0 0-.28 1.037-.827 2.199-.63 1.331-1.583 2.773-2.969 2.773-.42 0-.714-.21-.925-.546-.168-.28-.28-.714-.28-1.177a6.753 6.753 0 0 1 .168-1.526zm4.86-3.151c-.196-.098-.602-.182-.98-.182-.813 0-1.597.435-2.087 1.107-.574.798-.869 1.933-.869 3.067 0 .532.14 1.415.798 1.415.672 0 1.373-.925 1.877-1.947.364-.742.659-1.527.785-2.059.21-.869.476-1.401.476-1.401zM187.56 7.096l-.056-.098c.014-.07.266-.308.35-.364.28-.196.435-.266.435-.266l10.8-.098s.056.056.056.098c-.056.154-.518.687-.771.729H187.56zM87.518 25.846c-.854 0-.981-.686-.981-1.218 0-.827.267-2.031.911-3.53 0 0-.042-.112-.224-.112 0 0-1.723 4.847-4.398 4.847-.729 0-1.05-.42-1.05-1.051 0-.854 1.037-2.815 1.037-4.244 0-.854-.49-.995-.813-.995a.832.832 0 0 0-.238.028c-.07-.098-.07-.28-.07-.28.756-.588 2.283-.63 2.297-.63.07.28.098.588.098.91 0 1.849-1.093 3.992-1.093 4.791 0 .294.252.476.533.476 1.513 0 3.53-3.558 3.53-5.477 0-.252-.028-.462-.098-.63.238-.042.462-.07.672-.07.448 0 .785.084.827.098 0 .602-.07 1.205-.168 1.793-.238 1.331-.574 2.479-.574 3.74 0 .28.014.561.056.827.028.014.07.014.14.014.224 0 .644-.056.798-.154v1.597c0 .574-.182 1.821-2.759 1.821-1.079 0-1.429.392-1.429.924 0 .084.014.126.014.154l-.084.014c-.056.014-.098.014-.126.014-.112 0-.154-.056-.196-.224a2.665 2.665 0 0 1-.098-.645c0-.672.42-1.205 1.863-1.289 1.835-.112 2.283-.687 2.325-1.709a1.49 1.49 0 0 1-.702.21zM91.309 22.47c-.014.266-.014.476-.014.672.014.49.126.882.322 1.232.266.462.84.672 1.261.672 1.232 0 2.017-.742 2.017-.742s.196.378.182.392c-.252.294-1.457 1.177-2.801 1.177-.588 0-1.079-.168-1.415-.448-.574-.49-.742-1.303-.742-2.017 0-1.737.7-3.096 1.555-3.95.617-.616 1.359-.869 2.017-.869.813 0 1.317.168 1.653.519.21.21.322.532.322.938 0 2.283-3.488 2.423-4.23 2.423h-.127zm3.292-2.297c0-.771-.462-.995-1.008-.995-1.891 0-2.241 2.886-2.241 2.886 2.156-.028 3.249-.869 3.249-1.891zM104.849 24.823c0-1.849.924-3.936.924-4.623 0-.406-.28-.588-.532-.588-1.19 0-2.969 3.656-2.969 5.491 0 .182.028.392.098.63-.238.042-.448.07-.658.07-.448 0-.784-.07-.826-.084v-.182c0-1.891.77-3.417.77-4.986 0-.883-.378-1.121-.714-1.121-.084 0-.154.014-.224.028-.084-.084-.084-.21-.084-.252 0 0 .701-.546 2.227-.546 0 0 .014.112.014.308 0 .532-.126 2.283-.995 4.594 0 0 .056.112.238.112 0 0 .14-.49.392-1.163.561-1.485 1.723-3.852 3.418-3.852.729 0 1.051.42 1.051 1.05s-.561 1.737-.896 2.872a10.85 10.85 0 0 0-.238.98s.098.112.252.112c0 0 .21-.672.308-.953.098-.294.238-.588.393-.966.602-1.415 1.737-3.096 3.096-3.096.742 0 1.078.392 1.078 1.022 0 .854-.896 3.012-.896 4.286 0 .827.504.967.827.967.098 0 .224-.028.266-.042.07.098.07.196.07.28-.785.616-2.255.63-2.297.63a4.005 4.005 0 0 1-.112-.938c0-.616.084-1.218.21-1.793.28-1.247.728-2.409.728-2.857 0-.378-.224-.602-.56-.602-.588 0-1.429 1.064-2.045 2.325-.504 1.05-.911 2.241-.911 3.067 0 .252.042.561.112.729-.238.042-.462.07-.658.07-.434 0-.742-.07-.784-.084a4.658 4.658 0 0 1-.073-.895zM112.98 22.596c.238-1.022.658-1.849 1.232-2.507.896-1.009 2.143-1.513 2.97-1.513 1.499 0 2.073.336 2.073.336s-.182.252-.462 1.709c-.21 1.093-.378 2.031-.49 2.983a4.234 4.234 0 0 0-.042.561c0 .742.28.938.616.938.112 0 .224-.028.35-.056.056.042.084.168.084.252 0 0-.756.518-2.311.546 0 0-.014-.14-.014-.378 0-.687.126-2.255 1.051-4.482 0 0-.042-.112-.224-.112 0 0-.28 1.037-.827 2.199-.63 1.331-1.583 2.773-2.969 2.773-.42 0-.715-.21-.925-.546-.168-.28-.28-.714-.28-1.177 0-.531.056-1.036.168-1.526zm4.86-3.152c-.196-.098-.602-.182-.98-.182-.813 0-1.597.435-2.087 1.107-.575.798-.869 1.933-.869 3.067 0 .532.14 1.415.798 1.415.672 0 1.373-.925 1.877-1.947.364-.742.659-1.527.785-2.059.21-.868.476-1.401.476-1.401zM123.089 22.414h-.378c-.182.7-.35 1.471-.35 2.129 0 .532.042.91.224 1.176a3.67 3.67 0 0 1-.827.084c-.434 0-.714-.07-.714-.07 0-1.919 1.037-3.838 1.037-5.337 0-.742-.42-.882-.743-.882-.154 0-.28.028-.322.042-.07-.098-.07-.28-.07-.28.756-.588 2.297-.63 2.297-.63.056.238.07.519.07.813 0 .518-.07 1.093-.224 1.653-.07.238-.168.532-.252.854h.364c.546 0 1.205-.07 1.695-1.093.574-1.19.924-2.269 1.905-2.269.658 0 .896.434.896.756 0 .504-.252.869-.938.883 0-.014-.084-.322-.477-.322-.35 0-.504.28-.882.994-.294.561-.785 1.177-1.443 1.275.378.014 1.064.266 1.569 1.331.49 1.023.532 1.611 1.289 1.611.098 0 .196-.014.322-.042 0 0 .126.056.126.266 0 0-.42.519-1.176.519-1.219 0-1.373-1.247-1.695-2.115-.294-.785-.602-1.346-1.303-1.346zM134.543 19.626c.266.42.406 1.079.406 1.639 0 1.331-.392 2.325-.966 3.054-.477.602-1.037 1.022-1.625 1.274-.658.266-.995.294-1.527.294-.504 0-.911-.112-1.247-.309-.771-.448-1.121-1.345-1.121-2.381 0-1.373.49-2.521 1.148-3.25.854-.953 1.989-1.359 2.815-1.359 1.067.002 1.669.338 2.117 1.038zm-4.847 3.376c0 .798.224 1.513.603 1.933.224.252.504.35.827.35.756 0 1.442-.448 1.905-1.19.448-.714.687-1.653.687-2.718 0-.49-.126-.938-.238-1.247-.252-.658-.729-.966-1.19-.966-1.529.001-2.594 1.821-2.594 3.838zM141.066 20.635c.392-.504.462-1.345.476-1.989.617 0 1.079.112 1.079.112 0 .056.014.154.014.238 0 1.303-.813 3.236-.924 4.566l2.241-2.885c.448-1.037 1.373-2.045 2.381-2.045.798 0 1.19.49 1.19.953 0 .672-.434.911-.967.911-.084 0-.168 0-.252-.014.014-.126.014-.252.014-.392 0-.434-.084-.854-.477-.854-.784 0-1.387 2.101-1.387 3.67 0 1.275.308 2.101 1.079 2.101.28 0 .603-.07.827-.21l.07.336s-.546.687-1.597.687c-1.135 0-1.429-.98-1.429-2.017 0-.798.154-1.639.294-2.129l-1.667 2.185c-.322.42-.42.826-.42 1.499 0 .14 0 .294.014.462-.014 0-.14.014-.196.014-.504 0-.869-.098-.882-.098a2.663 2.663 0 0 1-.042-.518c0-1.037.336-2.872.7-4.076l-2.129 2.647c-.448 1.037-1.387 2.031-2.395 2.031-.798 0-1.191-.49-1.191-.953 0-.672.435-.91.967-.91.084 0 .168 0 .252.014-.014.126-.014.252-.014.393 0 .434.084.854.477.854.784 0 1.387-2.087 1.387-3.656 0-1.274-.308-2.115-1.079-2.115-.28 0-.603.07-.827.21l-.07-.336s.546-.687 1.597-.687c1.135 0 1.429.995 1.429 2.031 0 .798-.14 1.667-.28 2.157l1.737-2.187zM154.49 20.369c-.392 2.185-1.289 5.449-2.633 5.449-.49 0-.854-.252-.854-.729 0-.518.308-.868.896-.91 0 .196.21.364.378.364.7 0 1.457-1.891 2.017-5.295 0 0-.182-.084-.701-.084v-.182c0-.084.014-.182.21-.196.462-.042 1.037-.07 1.527-.056l.729 5.365s2.409-4.356 2.998-5.281c0 0 .938-.112 1.177-.112 0 1.765-.896 3.852-.896 5.351 0 .757.434.896.756.896.14 0 .266-.028.308-.042.07.098.07.28.07.28-.756.588-2.297.63-2.297.63a3.66 3.66 0 0 1-.07-.813c0-1.485.672-3.824.91-5.21-.924 1.387-2.367 4.034-3.236 5.687-.07.14-.14.28-.21.406h-.336l-.743-5.518zM169.025 25.271c0 .014-.771.561-2.312.561 0 0-.014-.126-.014-.364 0-.672.126-2.185 1.05-4.455 0 0-.042-.112-.224-.112 0 0-.42 1.177-1.163 2.409-.771 1.275-1.891 2.521-3.25 2.521-.729 0-1.051-.42-1.051-1.051 0-.854 1.051-2.885 1.051-4.244 0-.854-.448-1.009-.771-1.009a.974.974 0 0 0-.28.042c-.07-.098-.07-.28-.07-.28.686-.462 1.541-.63 2.297-.63.042.126.098.588.098.91 0 1.849-1.106 3.992-1.106 4.791 0 .294.252.476.532.476.742 0 1.555-.771 2.227-1.835.756-1.191 1.317-2.675 1.317-3.642 0-.252-.028-.462-.098-.63.238-.042.462-.07.672-.07.448 0 .785.084.827.098 0 1.807-.63 3.417-.743 4.875-.014.112-.014.224-.014.322 0 .924.364 1.106.687 1.106.084 0 .182-.014.252-.028.072.072.086.197.086.239zM175.408 18.926c.294.196.518.504.518 1.008 0 .63-.476.925-1.022.925-.112 0-.224-.014-.35-.042.028-.084.126-.406.126-.756 0-.435-.154-.883-.854-.883-1.597 0-2.283 2.185-2.283 3.81 0 1.317.574 2.059 1.667 2.059 1.092 0 1.933-.742 1.933-.742s.182.378.182.392c-.617.63-1.737 1.177-2.9 1.177s-2.059-.771-2.059-2.479c0-2.619 1.667-4.805 3.488-4.805.489 0 1.119.042 1.554.336zM181.427 24.823c0-1.849.924-3.936.924-4.623 0-.406-.28-.588-.532-.588-1.19 0-2.969 3.656-2.969 5.491 0 .182.028.392.098.63-.238.042-.448.07-.658.07-.448 0-.784-.07-.826-.084v-.182c0-1.891.77-3.417.77-4.986 0-.883-.378-1.121-.714-1.121-.084 0-.154.014-.224.028-.084-.084-.084-.21-.084-.252 0 0 .701-.546 2.227-.546 0 0 .014.112.014.308 0 .532-.126 2.283-.995 4.594 0 0 .056.112.238.112 0 0 .14-.49.392-1.163.561-1.485 1.723-3.852 3.418-3.852.729 0 1.051.42 1.051 1.05s-.561 1.737-.896 2.872a10.85 10.85 0 0 0-.238.98s.098.112.252.112c0 0 .21-.672.308-.953.098-.294.238-.588.393-.966.602-1.415 1.737-3.096 3.096-3.096.742 0 1.078.392 1.078 1.022 0 .854-.896 3.012-.896 4.286 0 .827.504.967.827.967.098 0 .224-.028.266-.042.07.098.07.196.07.28-.785.616-2.255.63-2.297.63a4.005 4.005 0 0 1-.112-.938c0-.616.084-1.218.21-1.793.28-1.247.728-2.409.728-2.857 0-.378-.224-.602-.56-.602-.588 0-1.429 1.064-2.045 2.325-.504 1.05-.911 2.241-.911 3.067 0 .252.042.561.112.729-.238.042-.462.07-.658.07-.434 0-.742-.07-.784-.084a4.658 4.658 0 0 1-.073-.895zM190.553 22.47c-.014.266-.014.476-.014.672.014.49.126.882.322 1.232.266.462.84.672 1.261.672 1.232 0 2.017-.742 2.017-.742s.196.378.182.392c-.252.294-1.457 1.177-2.801 1.177-.588 0-1.079-.168-1.415-.448-.574-.49-.742-1.303-.742-2.017 0-1.737.7-3.096 1.555-3.95.617-.616 1.359-.869 2.017-.869.813 0 1.317.168 1.653.519.21.21.322.532.322.938 0 2.283-3.488 2.423-4.23 2.423h-.127zm3.292-2.297c0-.771-.462-.995-1.008-.995-1.891 0-2.241 2.886-2.241 2.886 2.156-.028 3.249-.869 3.249-1.891zM202.05 25.846c-.854 0-.981-.686-.981-1.218 0-.827.266-2.031.911-3.53 0 0-.042-.112-.224-.112 0 0-1.723 4.847-4.398 4.847-.728 0-1.05-.42-1.05-1.051 0-.854 1.037-2.815 1.037-4.244 0-.854-.491-.995-.813-.995a.832.832 0 0 0-.238.028c-.07-.098-.07-.28-.07-.28.756-.588 2.283-.63 2.297-.63.07.28.098.588.098.91 0 1.849-1.092 3.992-1.092 4.791 0 .294.252.476.532.476 1.513 0 3.53-3.558 3.53-5.477 0-.252-.028-.462-.098-.63.238-.042.462-.07.672-.07.448 0 .785.084.827.098 0 .602-.07 1.205-.168 1.793-.238 1.331-.574 2.479-.574 3.74 0 .28.014.561.056.827.028.014.07.014.14.014.224 0 .644-.056.798-.154v1.597c0 .574-.182 1.821-2.759 1.821-1.079 0-1.429.392-1.429.924 0 .084.014.126.014.154l-.084.014c-.056.014-.098.014-.126.014-.112 0-.154-.056-.196-.224a2.665 2.665 0 0 1-.098-.645c0-.672.42-1.205 1.863-1.289 1.835-.112 2.283-.687 2.325-1.709a1.49 1.49 0 0 1-.702.21zM209.132 24.823c0-1.849.924-3.936.924-4.623 0-.406-.28-.588-.532-.588-1.19 0-2.969 3.656-2.969 5.491 0 .182.028.392.098.63-.238.042-.448.07-.658.07-.448 0-.784-.07-.827-.084v-.182c0-1.891.771-3.417.771-4.986 0-.883-.378-1.121-.714-1.121-.084 0-.154.014-.224.028-.084-.084-.084-.21-.084-.252 0 0 .7-.546 2.227-.546 0 0 .014.112.014.308 0 .532-.126 2.283-.995 4.594 0 0 .056.112.238.112 0 0 .14-.49.392-1.163.561-1.485 1.723-3.852 3.418-3.852.729 0 1.051.42 1.051 1.05s-.561 1.737-.896 2.872a10.85 10.85 0 0 0-.238.98s.098.112.252.112c0 0 .21-.672.308-.953.098-.294.238-.588.393-.966.602-1.415 1.737-3.096 3.096-3.096.742 0 1.079.392 1.079 1.022 0 .854-.896 3.012-.896 4.286 0 .827.504.967.826.967.098 0 .224-.028.266-.042.07.098.07.196.07.28-.785.616-2.255.63-2.297.63a4.005 4.005 0 0 1-.112-.938c0-.616.084-1.218.21-1.793.28-1.247.728-2.409.728-2.857 0-.378-.224-.602-.56-.602-.588 0-1.429 1.064-2.045 2.325-.504 1.05-.91 2.241-.91 3.067 0 .252.042.561.112.729-.238.042-.462.07-.658.07-.434 0-.742-.07-.785-.084a4.658 4.658 0 0 1-.073-.895zM223.049 20.033c0 1.737-2.186 1.905-2.186 1.905v.07s1.737.126 1.737 1.597c0 1.429-1.667 2.27-2.984 2.27-1.541 0-2.437-.869-2.437-2.465 0-2.213 1.205-4.777 4.118-4.777.953-.001 1.752.419 1.752 1.4zm-3.432 2.255c-.49 0-.938.028-1.219.084 0 0-.042.294-.042.729 0 .924.224 2.283 1.527 2.283 1.121 0 1.555-.911 1.555-1.737 0-1.191-.938-1.359-1.821-1.359zm-.714-.406c1.135 0 2.97-.406 2.97-1.849 0-.63-.364-.924-.869-.924-.868 0-2.199.953-2.493 2.759.112.014.252.014.392.014zM230.595 19.626c.266.42.406 1.079.406 1.639 0 1.331-.392 2.325-.966 3.054-.477.602-1.037 1.022-1.625 1.274-.658.266-.995.294-1.527.294-.504 0-.911-.112-1.247-.309-.771-.448-1.121-1.345-1.121-2.381 0-1.373.49-2.521 1.148-3.25.854-.953 1.989-1.359 2.816-1.359 1.066.002 1.668.338 2.116 1.038zm-4.846 3.376c0 .798.224 1.513.603 1.933.224.252.504.35.827.35.756 0 1.442-.448 1.905-1.19.448-.714.687-1.653.687-2.718 0-.49-.126-.938-.238-1.247-.252-.658-.729-.966-1.19-.966-1.53.001-2.594 1.821-2.594 3.838z"/></g></svg>