<?xml version="1.0" encoding="utf-8"?>
<!-- Generator: Adobe Illustrator 16.0.0, SVG Export Plug-In . SVG Version: 6.00 Build 0)  -->
<!DOCTYPE svg PUBLIC "-//W3C//DTD SVG 1.1//EN" "http://www.w3.org/Graphics/SVG/1.1/DTD/svg11.dtd" [
	<!ENTITY ns_flows "http://ns.adobe.com/Flows/1.0/">
	<!ENTITY ns_extend "http://ns.adobe.com/Extensibility/1.0/">
	<!ENTITY ns_ai "http://ns.adobe.com/AdobeIllustrator/10.0/">
	<!ENTITY ns_graphs "http://ns.adobe.com/Graphs/1.0/">
]>
<svg version="1.1" id="Layer_1" xmlns:x="&ns_extend;" xmlns:i="&ns_ai;" xmlns:graph="&ns_graphs;"
	 xmlns="http://www.w3.org/2000/svg" xmlns:xlink="http://www.w3.org/1999/xlink" xmlns:a="http://ns.adobe.com/AdobeSVGViewerExtensions/3.0/"
	 x="0px" y="0px" width="450px" height="20px" viewBox="0 0 450 20" enable-background="new 0 0 450 20" xml:space="preserve">
<g>
	<g>
		<polygon fill="#B9BABA" points="173,6 169,10 171,10 173,8 175,10 177,10 		"/>
		<polygon fill="#D1D2D2" points="181,10 185,6 183,6 181,8 179,6 177,6 		"/>
	</g>
	<g>
		<polygon fill="#B9BABA" points="157,6 153,10 155,10 157,8 159,10 161,10 		"/>
		<polygon fill="#D1D2D2" points="165,10 169,6 167,6 165,8 163,6 161,6 		"/>
	</g>
	<g>
		<polygon fill="#B9BABA" points="141,6 137,10 139,10 141,8 143,10 145,10 		"/>
		<polygon fill="#D1D2D2" points="149,10 153,6 151,6 149,8 147,6 145,6 		"/>
	</g>
	<g>
		<polygon fill="#B9BABA" points="125,6 121,10 123,10 125,8 127,10 129,10 		"/>
		<polygon fill="#D1D2D2" points="133,10 137,6 135,6 133,8 131,6 129,6 		"/>
	</g>
	<g>
		<polygon fill="#B9BABA" points="109,6 105,10 107,10 109,8 111,10 113,10 		"/>
		<polygon fill="#D1D2D2" points="117,10 121,6 119,6 117,8 115,6 113,6 		"/>
	</g>
	<g>
		<polygon fill="#B9BABA" points="93,6 89,10 91,10 93,8 95,10 97,10 		"/>
		<polygon fill="#D1D2D2" points="101,10 105,6 103,6 101,8 99,6 97,6 		"/>
	</g>
	<g>
		<polygon fill="#B9BABA" points="77,6 73,10 75,10 77,8 79,10 81,10 		"/>
		<polygon fill="#D1D2D2" points="85,10 89,6 87,6 85,8 83,6 81,6 		"/>
	</g>
	<g>
		<polygon fill="#B9BABA" points="61,6 57,10 59,10 61,8 63,10 65,10 		"/>
		<polygon fill="#D1D2D2" points="69,10 73,6 71,6 69,8 67,6 65,6 		"/>
	</g>
	<g>
		<polygon fill="#B9BABA" points="45,6 41,10 43,10 45,8 47,10 49,10 		"/>
		<polygon fill="#D1D2D2" points="53,10 57,6 55,6 53,8 51,6 49,6 		"/>
	</g>
	<g>
		<polygon fill="#B9BABA" points="29,6 25,10 27,10 29,8 31,10 33,10 		"/>
		<polygon fill="#D1D2D2" points="37,10 41,6 39,6 37,8 35,6 33,6 		"/>
	</g>
	<g>
		<polygon fill="#B9BABA" points="13,6 9,10 11,10 13,8 15,10 17,10 		"/>
		<polygon fill="#D1D2D2" points="21,10 25,6 23,6 21,8 19,6 17,6 		"/>
	</g>
	<g>
		<polygon fill="#D1D2D2" points="5,10 9,6 7,6 5,8 3,6 1,6 		"/>
	</g>
</g>
<g>
	<g>
		<polygon fill="#B9BABA" points="437,6 433,10 435,10 437,8 439,10 441,10 		"/>
		<polygon fill="#D1D2D2" points="445,10 449,6 447,6 445,8 443,6 441,6 		"/>
	</g>
	<g>
		<polygon fill="#B9BABA" points="421,6 417,10 419,10 421,8 423,10 425,10 		"/>
		<polygon fill="#D1D2D2" points="429,10 433,6 431,6 429,8 427,6 425,6 		"/>
	</g>
	<g>
		<polygon fill="#B9BABA" points="405,6 401,10 403,10 405,8 407,10 409,10 		"/>
		<polygon fill="#D1D2D2" points="413,10 417,6 415,6 413,8 411,6 409,6 		"/>
	</g>
	<g>
		<polygon fill="#B9BABA" points="389,6 385,10 387,10 389,8 391,10 393,10 		"/>
		<polygon fill="#D1D2D2" points="397,10 401,6 399,6 397,8 395,6 393,6 		"/>
	</g>
	<g>
		<polygon fill="#B9BABA" points="373,6 369,10 371,10 373,8 375,10 377,10 		"/>
		<polygon fill="#D1D2D2" points="381,10 385,6 383,6 381,8 379,6 377,6 		"/>
	</g>
	<g>
		<polygon fill="#B9BABA" points="357,6 353,10 355,10 357,8 359,10 361,10 		"/>
		<polygon fill="#D1D2D2" points="365,10 369,6 367,6 365,8 363,6 361,6 		"/>
	</g>
	<g>
		<polygon fill="#B9BABA" points="341,6 337,10 339,10 341,8 343,10 345,10 		"/>
		<polygon fill="#D1D2D2" points="349,10 353,6 351,6 349,8 347,6 345,6 		"/>
	</g>
	<g>
		<polygon fill="#B9BABA" points="325,6 321,10 323,10 325,8 327,10 329,10 		"/>
		<polygon fill="#D1D2D2" points="333,10 337,6 335,6 333,8 331,6 329,6 		"/>
	</g>
	<g>
		<polygon fill="#B9BABA" points="309,6 305,10 307,10 309,8 311,10 313,10 		"/>
		<polygon fill="#D1D2D2" points="317,10 321,6 319,6 317,8 315,6 313,6 		"/>
	</g>
	<g>
		<polygon fill="#B9BABA" points="293,6 289,10 291,10 293,8 295,10 297,10 		"/>
		<polygon fill="#D1D2D2" points="301,10 305,6 303,6 301,8 299,6 297,6 		"/>
	</g>
	<g>
		<polygon fill="#B9BABA" points="277,6 273,10 275,10 277,8 279,10 281,10 		"/>
		<polygon fill="#D1D2D2" points="285,10 289,6 287,6 285,8 283,6 281,6 		"/>
	</g>
	<g>
		<polygon fill="#D1D2D2" points="269,10 273,6 271,6 269,8 267,6 265,6 		"/>
	</g>
</g>
<g>
	<g>
		<polygon fill="#D1D2D2" points="197,8 203,14 209,14 197,2 		"/>
		<polygon fill="#B9BABA" points="197,2 185,14 191,14 197,8 		"/>
	</g>
	<g>
		<polygon fill="#D1D2D2" points="253,8 259,14 265,14 253,2 		"/>
		<polygon fill="#B9BABA" points="253,2 241,14 247,14 253,8 		"/>
	</g>
	<g>
		<polygon fill="#D1D2D2" points="210.242,0 205,0 225,20 225,14.758 		"/>
		<polygon fill="#D1D2D2" points="225,10 215,0 211.757,0 225,13.242 		"/>
		<polygon fill="#B9BABA" points="239.758,0 225,14.758 225,20 245,0 		"/>
		<polygon fill="#B9BABA" points="238.243,0 235,0 225,10 225,13.242 		"/>
	</g>
</g>
</svg>
