<svg xmlns="http://www.w3.org/2000/svg" width="120" height="54.67" viewBox="0 0 120 54.67"><path fill="#D88E01" d="M101.164 37.489c-.596.393-.135.993.494.68 1.061-.529 2.342-2.581 3.683-3.781-.401 1.445-3.407 5.972-5.472 4.662-2.063-1.311.938-2.53 1.295-1.561zM113.758 20.273c.42-.525 3.301 2.713-2.125 5.005 3.911.442 5.867-3.806 4.353-6.666s-4.983-1.514-5.741-.547c-.756.967-.693 2.713.905 2.871 1.597.158 2.608-.663 2.608-.663zM55.063 3.806c-3.281-.406-3.178 2.771-2.531 3.875.646 1.104 2.004 1.578 3.979 2.198 1.792.563 2.792.851 2.792 2.781 0 1.195-1.427 1.988-1.427 1.988 3.135.116 3.411-2.887 2.584-4.633.367.275 1.104.367 1.379-.185.643-1.194-1.251-1.968-1.661-2.962-.293-.708-.178-1.172.281-1.906-2.584-.052-1.348 2.624-1.653 2.849-.306.225-3.577.152-3.129-2.14-.093.184-.339-1.13-.614-1.865z"/><path fill="#FAB835" d="M56.121 10.5c.915.198 2.493.629 2.593 1.629 0 .643-.459 1.102-1.103 1.286-.826.184-.332 1.348.398 1.225 1.667-.281 1.945-2 1.577-3.011-.459-1.012-1.753-1.486-2.895-1.798-1.505-.41-3.192-1.059-3.745-1.702-1.562-1.837-.219-4.438 1.999-4.27 0 0-.442.392-.321.968.229 1.083 1.416 1.3 2.197.614.517-.452.652-1.638-.13-2.593-1.308-1.595-5.61-.368-5.427 3.124.002 2.74 3.382 4.209 4.857 4.528zM110.536 22.512c1.47 1.102 3.675.827 3.767-1.194.184-2.021-2.665-2.389-3.767-1.011-.552-.552-.368-1.471.091-2.114.461-.459 1.472-1.194 2.482-.643-.553.275-1.011 1.103-.736 1.286 1.195-.459 2.666-.275 3.124.367 1.379 1.563.552 4.227-1.746 5.422-1.194.643-2.848.735-4.134.276 0 .55.275 2.021 1.93 2.389-2.205.735-4.503 1.653-5.421 3.583.274-.091 1.285.276 2.848-.274-1.195 2.113-4.043.918-4.317 2.756.734 0 .918.459 1.652.092-1.102.919-1.745 1.93-2.296 2.664-.184.275-.46.643-.828 1.195-.827 1.103-2.021 2.48-3.215 1.561-.552-.367-.46-.918-.184-1.102.458-.368 1.285-.275 1.378-.275.643-.46.275-1.104-.367-1.194-.736-.185-1.655.367-1.838 1.102-.461 1.379 1.194 2.665 2.664 2.114.551-.185 1.102-.645 1.562-1.012.552-.551 1.011-1.01 1.286-1.47 0 .827.186 1.379.553 1.837.274.369.734.827 1.744.92 1.104.092 1.93-.184 2.941-.551.734-.184 1.379-.553 1.929-.553 1.012 0 1.288.369 1.655.736.551.459 1.653.643 2.388.459a2.18 2.18 0 0 0 1.011-.552l.919-.734c-.458-.644-1.285-.093-1.562-.551-.643-.828.827-1.379-.459-2.481 2.205-3.033.919-5.237.184-5.146-.184 0 0 .276.091.553.093.643-.644 1.379-1.378 1.837-.735.367-1.377.276-2.021.735a1.995 1.995 0 0 0-.919 1.011c-.736.091-.184-1.47-1.563-1.286-.46 1.286-1.194 1.377-1.654 2.021-.552.644-.184 1.47.276 1.839.551.458 1.286.367 1.562.734.185.275-1.654 1.286-3.031 1.195-1.011 0-1.746-.736-1.746-1.93.092-.92.551-1.563 1.193-2.206 1.655-1.653 4.043-2.848 5.973-4.317 2.206-1.655 3.952-3.677 4.779-6.249.734-2.113.643-4.319-.736-6.248-.459-.828-2.021-2.021-3.031-2.298-.092.276-.092.46 0 .644-.919-.092-1.838 0-2.574.367-1.102.644-2.021 1.93-1.837 3.309.092.917.643 1.743 1.378 2.387z"/><g fill="#FEDCAA"><path d="M32.344 32.893l-.735 1.104c.735.185 1.194 1.286 1.287 2.298.366 3.491-4.595 4.317-7.168 4.042-.552-.092-1.103-.184-1.563-.367-3.582-1.011-5.42-3.491-7.626-5.697-3.582-3.674-6.891-7.994-11.209-8.821-.093-.091-.185-.091-.185-.183.369-.643.736-1.47 1.195-2.297 1.562-2.757 4.134-6.891 6.616-8.729 1.286-.919 2.938-1.011 3.858-.644 1.195.459 1.654 2.021.459 3.583l.367.184 3.4-3.859c-1.471-2.48-3.584-2.848-5.514-2.48-2.205.367-4.227 2.756-5.696 4.961-1.837 2.757-4.961 7.902-6.248 10.934 1.562.735 5.696 5.33 6.8 6.616 3.951 4.503 7.533 8.086 13.781 8.362h1.104c2.939 0 5.789-.921 7.442-3.034.644-.734 1.011-1.93 1.011-3.031.093-1.287-.366-2.389-1.376-2.942zM109.25 12.772h8.637v2.848h-8.637z"/><path d="M14.61 31.149h2.848l12.589-16.172v16.172h16.539v-2.941h-13.69v-5.513h9.83v-2.941h-9.83v-5.512h13.69v-2.941H30.047zM0 12.772h2.94v28.943H0zM103.185 28.299c2.573-1.654 4.319-4.501 4.319-7.809s-1.746-6.156-4.319-7.81c-1.378-.827-3.031-1.379-4.777-1.379-5.054 0-9.188 4.135-9.188 9.189s4.135 9.188 9.188 9.188c1.745 0 3.399-.551 4.777-1.379zM92.067 20.49c0-3.492 2.848-6.248 6.34-6.248 1.929 0 3.675.827 4.777 2.205a6.235 6.235 0 0 1 1.472 4.043c0 1.47-.553 2.94-1.472 4.043-1.103 1.378-2.849 2.205-4.777 2.205-3.492 0-6.34-2.757-6.34-6.248zM98.407 40.245h-2.113v4.41h2.94v-2.94h17.826v2.94H120v-4.41zM64.41 12.772L52.373 36.11V12.772h-2.939v28.943h2.939L64.41 18.377v23.338h2.942V12.772zM85.176 35.926L73.139 12.772h-2.848v28.943h2.848V18.377l12.037 23.338h2.848V12.772h-2.848zM70.291 12.772V7.167l1.378 2.664h2.206L68.821 0l-5.145 9.831h2.297l1.379-2.664v5.605zM67.352 41.715V54.67l1.469-2.572 1.47 2.572V41.715h-1.47z"/></g><path fill="#D88E01" d="M117.505 22.255c-.489 3.916-3.941 7.447-8.255 10.031 1.375-1.584 4.428-3.724 4.902-5.016-1.237.694-2.57 1.297-2.582.932s1.328-.524 1.036-1.036c-.376-.659.737-.684 2.28-1.607 1.542-.923 2.08-2.129 2.619-3.304zM116.498 32.286c.084.962-.875 2.766-1.563 3.386-1.134 1.022-2.002 1.526-2.559 1.548-.556.022-.465-1.459 1.092-1.926s2.257-1.414 3.03-3.008z"/></svg>