<?xml version="1.0" encoding="utf-8"?>
<!-- Generator: Adobe Illustrator 16.0.0, SVG Export Plug-In . SVG Version: 6.00 Build 0)  -->
<!DOCTYPE svg PUBLIC "-//W3C//DTD SVG 1.1//EN" "http://www.w3.org/Graphics/SVG/1.1/DTD/svg11.dtd" [
	<!ENTITY ns_flows "http://ns.adobe.com/Flows/1.0/">
	<!ENTITY ns_extend "http://ns.adobe.com/Extensibility/1.0/">
	<!ENTITY ns_ai "http://ns.adobe.com/AdobeIllustrator/10.0/">
	<!ENTITY ns_graphs "http://ns.adobe.com/Graphs/1.0/">
]>
<svg version="1.1" id="Layer_1" xmlns:x="&ns_extend;" xmlns:i="&ns_ai;" xmlns:graph="&ns_graphs;"
	 xmlns="http://www.w3.org/2000/svg" xmlns:xlink="http://www.w3.org/1999/xlink" xmlns:a="http://ns.adobe.com/AdobeSVGViewerExtensions/3.0/"
	 x="0px" y="0px" width="240px" height="109.342px" viewBox="0 0 240 109.342" enable-background="new 0 0 240 109.342"
	 xml:space="preserve">
<g>
	<g>
		<defs>
			<rect id="SVGID_1_" y="0.001" width="240" height="109.341"/>
		</defs>
		<clipPath id="SVGID_2_">
			<use xlink:href="#SVGID_1_"  overflow="visible"/>
		</clipPath>
		<path clip-path="url(#SVGID_2_)" fill="#D46F0E" d="M202.328,74.978c-1.191,0.786-0.268,1.986,0.988,1.36
			c2.121-1.059,4.684-5.162,7.366-7.563c-0.802,2.892-6.815,11.944-10.943,9.324C195.612,75.479,201.614,73.04,202.328,74.978"/>
		<path clip-path="url(#SVGID_2_)" fill="#D46F0E" d="M0.526,109.334h2.983v-4.781c0.278,0.06,0.632,0.078,1.028,0.078
			c1.778,0,3.299-0.453,4.327-1.4c0.809-0.732,1.224-1.839,1.224-3.162c0-1.305-0.554-2.411-1.423-3.063
			c-0.888-0.731-2.212-1.086-4.069-1.086c-1.838,0-3.141,0.117-4.07,0.276V109.334z M3.509,98.311c0.217-0.061,0.632-0.1,1.226-0.1
			c1.521,0,2.37,0.73,2.37,1.956c0,1.345-0.988,2.154-2.588,2.154c-0.455,0-0.75-0.021-1.008-0.081V98.311z M24.845,105.917
			l1.028,3.417h3.24L24.964,96.02h-3.931l-4.07,13.314h3.121l0.929-3.417H24.845z M21.448,103.664l0.809-2.825
			c0.198-0.771,0.415-1.778,0.594-2.567h0.058c0.197,0.771,0.435,1.775,0.652,2.567l0.829,2.825H21.448z M48.295,109.334h2.923
			L50.507,96.02h-3.95l-1.402,4.424c-0.456,1.482-0.91,3.24-1.266,4.781H43.81c-0.295-1.561-0.69-3.222-1.125-4.764l-1.304-4.441
			h-4.01l-0.85,13.314h2.785l0.257-5.058c0.079-1.661,0.158-3.716,0.217-5.513h0.04c0.336,1.758,0.77,3.636,1.205,5.195l1.422,5.156
			h2.351l1.62-5.195c0.514-1.56,1.067-3.459,1.502-5.156h0.04c0,1.956,0.059,3.873,0.117,5.472L48.295,109.334z M66.372,105.917
			l1.027,3.417h3.239L66.489,96.02h-3.931l-4.069,13.314h3.121l0.929-3.417H66.372z M62.973,103.664l0.81-2.825
			c0.198-0.771,0.415-1.778,0.593-2.567h0.06c0.197,0.771,0.435,1.775,0.65,2.567l0.831,2.825H62.973z M78.343,109.334h2.983v-4.781
			c0.276,0.06,0.633,0.078,1.027,0.078c1.779,0,3.3-0.453,4.327-1.4c0.81-0.732,1.225-1.839,1.225-3.162
			c0-1.305-0.553-2.411-1.422-3.063c-0.89-0.731-2.214-1.086-4.07-1.086c-1.837,0-3.141,0.117-4.07,0.276V109.334z M81.326,98.311
			c0.218-0.061,0.633-0.1,1.224-0.1c1.522,0,2.371,0.73,2.371,1.956c0,1.345-0.987,2.154-2.588,2.154
			c-0.453,0-0.751-0.021-1.007-0.081V98.311z M95.768,96.02v13.314h3.002v-5.552h4.959v5.552h3.003V96.02h-3.003v5.135H98.77V96.02
			H95.768z M117.339,109.334c0.218-0.414,0.337-0.731,0.475-1.128c0.395-1.086,0.731-2.805,1.58-3.594
			c0.356-0.336,0.829-0.513,1.423-0.513h0.73v5.234h2.983V96.218c-0.967-0.181-2.35-0.298-3.812-0.298
			c-1.739,0-3.338,0.276-4.366,1.048c-0.83,0.632-1.383,1.599-1.383,2.824c0,1.917,1.324,2.964,2.805,3.24v0.061
			c-0.435,0.155-0.809,0.393-1.107,0.671c-1.006,0.967-1.322,2.547-1.856,4.067c-0.178,0.556-0.396,1.068-0.672,1.503H117.339z
			 M121.547,101.865c-0.275,0.061-0.691,0.061-1.066,0.061c-1.383,0-2.51-0.634-2.51-1.857c0-1.362,1.047-1.896,2.351-1.896
			c0.614,0,1.008,0.059,1.225,0.117V101.865z"/>
		<path clip-path="url(#SVGID_2_)" fill="#D46F0E" d="M227.514,40.548c0.841-1.052,6.603,5.426-4.249,10.01
			c7.823,0.883,11.735-7.612,8.706-13.332c-3.029-5.72-9.967-3.028-11.482-1.093c-1.514,1.935-1.388,5.427,1.809,5.741
			C225.494,42.188,227.514,40.548,227.514,40.548"/>
		<path clip-path="url(#SVGID_2_)" fill="#D46F0E" d="M110.125,7.613c-6.563-0.813-6.354,5.542-5.063,7.75
			c1.292,2.208,4.008,3.154,7.959,4.396c3.583,1.125,5.583,1.702,5.583,5.563c0,2.39-2.854,3.977-2.854,3.977
			c6.271,0.232,6.823-5.773,5.168-9.267c0.736,0.551,2.207,0.734,2.758-0.368c1.285-2.388-2.503-3.937-3.322-5.925
			c-0.583-1.417-0.355-2.346,0.564-3.813c-5.168-0.104-2.695,5.246-3.307,5.696c-0.611,0.45-7.153,0.304-6.257-4.279
			C111.169,11.711,110.676,9.083,110.125,7.613"/>
		<path clip-path="url(#SVGID_2_)" fill="#F9B034" d="M112.241,21.001c1.832,0.396,4.988,1.258,5.187,3.257
			c0,1.287-0.919,2.205-2.206,2.572c-1.653,0.368-0.663,2.696,0.799,2.45c3.333-0.563,3.889-4,3.154-6.021
			c-0.919-2.023-3.507-2.973-5.79-3.596c-3.01-0.821-6.386-2.118-7.489-3.404c-3.124-3.675-0.438-8.875,3.997-8.54
			c0,0-0.886,0.785-0.643,1.937c0.458,2.166,2.832,2.599,4.396,1.229c1.032-0.904,1.303-3.277-0.261-5.186
			c-2.614-3.189-11.221-0.737-10.853,6.248C102.532,17.425,109.292,20.363,112.241,21.001"/>
		<path clip-path="url(#SVGID_2_)" fill="#F9B034" d="M221.072,45.023c2.94,2.204,7.35,1.654,7.535-2.388
			c0.367-4.043-5.331-4.779-7.535-2.022c-1.103-1.104-0.736-2.941,0.184-4.228c0.92-0.918,2.941-2.388,4.963-1.285
			c-1.104,0.551-2.022,2.206-1.471,2.571c2.389-0.918,5.329-0.55,6.247,0.734c2.757,3.126,1.104,8.454-3.492,10.845
			c-2.388,1.285-5.695,1.47-8.268,0.552c0,1.1,0.552,4.041,3.859,4.777c-4.41,1.471-9.005,3.307-10.842,7.165
			c0.551-0.182,2.571,0.553,5.696-0.549c-2.39,4.227-8.086,1.835-8.636,5.513c1.47,0,1.836,0.917,3.306,0.183
			c-2.205,1.838-3.491,3.859-4.593,5.328c-0.366,0.552-0.918,1.286-1.655,2.39c-1.653,2.206-4.041,4.961-6.429,3.123
			c-1.105-0.733-0.921-1.836-0.369-2.203c0.918-0.736,2.572-0.552,2.757-0.552c1.286-0.92,0.552-2.206-0.735-2.388
			c-1.471-0.37-3.31,0.733-3.676,2.203c-0.92,2.758,2.388,5.331,5.33,4.229c1.101-0.37,2.203-1.289,3.122-2.022
			c1.103-1.103,2.021-2.021,2.573-2.941c0,1.654,0.369,2.758,1.104,3.675c0.55,0.737,1.469,1.654,3.49,1.838
			c2.207,0.186,3.859-0.367,5.881-1.101c1.47-0.367,2.758-1.104,3.858-1.104c2.023,0,2.575,0.737,3.31,1.472
			c1.102,0.919,3.308,1.287,4.776,0.919c0.737-0.186,1.472-0.553,2.021-1.104l1.839-1.469c-0.918-1.286-2.571-0.184-3.123-1.101
			c-1.287-1.656,1.653-2.759-0.919-4.965c4.41-6.064,1.837-10.474,0.367-10.291c-0.367,0,0,0.553,0.183,1.104
			c0.184,1.286-1.287,2.758-2.756,3.674c-1.471,0.735-2.755,0.552-4.041,1.472c-0.736,0.367-1.472,1.102-1.839,2.021
			c-1.471,0.183-0.367-2.94-3.125-2.572c-0.919,2.572-2.388,2.755-3.307,4.041c-1.104,1.287-0.367,2.94,0.552,3.677
			c1.101,0.917,2.573,0.735,3.122,1.47c0.37,0.552-3.307,2.572-6.062,2.391c-2.022,0-3.492-1.472-3.492-3.86
			c0.183-1.838,1.101-3.125,2.388-4.41c3.308-3.308,8.086-5.695,11.945-8.636c4.41-3.31,7.902-7.353,9.557-12.497
			c1.469-4.227,1.285-8.638-1.471-12.496c-0.919-1.654-4.042-4.043-6.064-4.595c-0.184,0.552-0.184,0.919,0,1.286
			c-1.838-0.183-3.676,0-5.147,0.734c-2.203,1.288-4.042,3.859-3.675,6.618C218.5,42.084,219.602,43.735,221.072,45.023"/>
		<path clip-path="url(#SVGID_2_)" fill="#622F00" d="M64.687,65.787l-1.471,2.206c1.471,0.37,2.39,2.573,2.575,4.596
			c0.733,6.982-9.189,8.636-14.334,8.083c-1.104-0.182-2.206-0.366-3.126-0.733c-7.165-2.021-10.841-6.982-15.252-11.394
			c-7.165-7.349-13.782-15.987-22.418-17.643c-0.186-0.183-0.368-0.183-0.368-0.366c0.735-1.286,1.47-2.939,2.389-4.595
			c3.124-5.514,8.268-13.781,13.232-17.457c2.572-1.837,5.879-2.022,7.717-1.286c2.389,0.918,3.308,4.042,0.919,7.167l0.734,0.367
			l6.8-7.719c-2.94-4.962-7.166-5.695-11.026-4.962c-4.411,0.734-8.454,5.514-11.394,9.924C15.99,37.488,9.742,47.78,7.167,53.844
			c3.125,1.47,11.394,10.659,13.599,13.232c7.903,9.005,15.068,16.172,27.564,16.724h2.207c5.88,0,11.577-1.841,14.885-6.067
			c1.286-1.468,2.021-3.859,2.021-6.063C67.626,69.098,66.708,66.892,64.687,65.787"/>
	</g>
	<rect x="218.5" y="25.545" fill="#622F00" width="17.273" height="5.695"/>
	<polygon fill="#622F00" points="29.22,62.298 34.917,62.298 60.094,29.954 60.094,62.298 93.172,62.298 93.172,56.418 
		65.791,56.418 65.791,45.391 85.452,45.391 85.452,39.51 65.791,39.51 65.791,28.484 93.172,28.484 93.172,22.603 60.094,22.603 	
		"/>
	<rect y="25.545" fill="#622F00" width="5.882" height="57.886"/>
	<g>
		<defs>
			<rect id="SVGID_3_" y="0.001" width="240" height="109.341"/>
		</defs>
		<clipPath id="SVGID_4_">
			<use xlink:href="#SVGID_3_"  overflow="visible"/>
		</clipPath>
		<path clip-path="url(#SVGID_4_)" fill="#622F00" d="M184.134,40.98c0-6.982,5.697-12.496,12.681-12.496
			c3.857,0,7.349,1.653,9.555,4.41c1.839,2.206,2.941,4.962,2.941,8.086c0,2.94-1.102,5.88-2.941,8.086
			c-2.206,2.757-5.698,4.41-9.555,4.41C189.831,53.477,184.134,47.963,184.134,40.98 M206.37,56.6
			c5.146-3.308,8.638-9.003,8.638-15.619c0-6.615-3.492-12.312-8.638-15.62c-2.755-1.652-6.064-2.758-9.555-2.758
			c-10.106,0-18.377,8.271-18.377,18.378c0,10.108,8.271,18.377,18.377,18.377C200.306,59.357,203.615,58.256,206.37,56.6"/>
	</g>
	<polygon fill="#622F00" points="196.815,80.49 192.588,80.49 192.588,89.311 196.815,89.311 198.469,89.311 198.469,83.431 
		234.12,83.431 234.12,89.311 240,89.311 240,80.49 	"/>
	<polygon fill="#622F00" points="128.821,25.545 104.748,72.22 104.748,25.545 98.868,25.545 98.868,83.431 104.748,83.431 
		128.821,36.755 128.821,83.431 134.703,83.431 134.703,25.545 	"/>
	<polygon fill="#622F00" points="170.352,71.853 146.279,25.544 140.582,25.544 140.582,83.431 146.279,83.431 146.279,36.754 
		170.352,83.431 176.05,83.431 176.05,25.544 170.352,25.544 	"/>
	<polygon fill="#622F00" points="137.643,0 127.352,19.663 131.945,19.663 134.702,14.333 134.702,25.545 140.582,25.545 
		140.582,14.333 143.338,19.663 147.749,19.663 	"/>
	<polygon fill="#622F00" points="137.643,83.431 134.702,83.431 134.702,109.342 137.643,104.195 140.582,109.342 140.582,83.431 	
		"/>
	<g>
		<defs>
			<rect id="SVGID_5_" y="0.001" width="240" height="109.341"/>
		</defs>
		<clipPath id="SVGID_6_">
			<use xlink:href="#SVGID_5_"  overflow="visible"/>
		</clipPath>
		<path clip-path="url(#SVGID_6_)" fill="#D46F0E" d="M235.009,44.511c-0.979,7.832-7.883,14.894-16.509,20.06
			c2.75-3.166,8.857-7.445,9.803-10.028c-2.472,1.388-5.139,2.592-5.162,1.861c-0.024-0.73,2.656-1.049,2.071-2.07
			c-0.752-1.318,1.475-1.368,4.56-3.215C232.857,49.272,233.932,46.86,235.009,44.511"/>
		<path clip-path="url(#SVGID_6_)" fill="#D46F0E" d="M232.996,64.571c0.168,1.924-1.749,5.533-3.124,6.771
			c-2.268,2.046-4.005,3.053-5.117,3.097c-1.112,0.045-0.931-2.919,2.182-3.853C230.051,69.653,231.449,67.761,232.996,64.571"/>
	</g>
</g>
</svg>
