<?xml version="1.0" encoding="utf-8"?>
<!-- Generator: Adobe Illustrator 16.0.0, SVG Export Plug-In . SVG Version: 6.00 Build 0)  -->
<!DOCTYPE svg PUBLIC "-//W3C//DTD SVG 1.1//EN" "http://www.w3.org/Graphics/SVG/1.1/DTD/svg11.dtd" [
	<!ENTITY ns_flows "http://ns.adobe.com/Flows/1.0/">
	<!ENTITY ns_extend "http://ns.adobe.com/Extensibility/1.0/">
	<!ENTITY ns_ai "http://ns.adobe.com/AdobeIllustrator/10.0/">
	<!ENTITY ns_graphs "http://ns.adobe.com/Graphs/1.0/">
]>
<svg version="1.1" id="Layer_1" xmlns:x="&ns_extend;" xmlns:i="&ns_ai;" xmlns:graph="&ns_graphs;"
	 xmlns="http://www.w3.org/2000/svg" xmlns:xlink="http://www.w3.org/1999/xlink" xmlns:a="http://ns.adobe.com/AdobeSVGViewerExtensions/3.0/"
	 x="0px" y="0px" width="232px" height="30px" viewBox="0 0 232 30" enable-background="new 0 0 232 30" xml:space="preserve">
<g>
	<path fill="#8D0700" d="M7.078,4.827c0.266,0.42,0.406,1.079,0.406,1.639c0,1.331-0.392,2.325-0.966,3.054
		c-0.477,0.602-1.037,1.022-1.625,1.274c-0.658,0.266-0.995,0.294-1.527,0.294c-0.504,0-0.911-0.112-1.247-0.309
		c-0.771-0.448-1.121-1.345-1.121-2.381c0-1.373,0.49-2.521,1.148-3.25C3.001,4.196,4.136,3.79,4.963,3.79
		C6.027,3.79,6.629,4.126,7.078,4.827z M2.231,8.203c0,0.798,0.224,1.513,0.603,1.933c0.224,0.252,0.504,0.35,0.827,0.35
		c0.756,0,1.442-0.448,1.905-1.19c0.448-0.714,0.687-1.653,0.687-2.718c0-0.49-0.126-0.938-0.238-1.247
		c-0.252-0.658-0.729-0.966-1.19-0.966C3.296,4.365,2.231,6.186,2.231,8.203z"/>
	<path fill="#8D0700" d="M8.867,4.407c0,0,0.7-0.546,2.227-0.546c0,0,0.014,0.112,0.014,0.308c0,0.672-0.112,2.283-0.981,4.594
		c0,0,0.042,0.112,0.225,0.112c0,0,0.462-1.429,1.289-2.815c0.686-1.149,1.653-2.199,2.872-2.199c0.728,0,1.05,0.42,1.05,1.05
		c0,0.869-0.896,2.956-0.896,4.23c0,0.84,0.435,0.995,0.743,0.995c0.14,0,0.28-0.028,0.322-0.042c0.07,0.084,0.07,0.196,0.07,0.28
		c-0.616,0.616-2.269,0.63-2.297,0.63c-0.07-0.28-0.098-0.588-0.098-0.91c0-1.961,0.911-4.048,0.911-4.65
		c0-0.406-0.252-0.588-0.504-0.588c-0.588,0-1.261,0.644-1.835,1.527c-0.813,1.247-1.457,2.843-1.457,3.922
		c0,0.252,0.028,0.462,0.098,0.63c-0.238,0.042-0.462,0.07-0.672,0.07c-0.448,0-0.785-0.084-0.827-0.098
		c0.042-2.312,0.771-3.754,0.771-5.169c0-0.911-0.364-1.106-0.687-1.106c-0.084,0-0.182,0.014-0.252,0.028
		C8.867,4.575,8.867,4.449,8.867,4.407z"/>
	<path fill="#8D0700" d="M18.723,5.611c0-0.827-0.35-1.022-0.658-1.022c-0.098,0-0.196,0.014-0.266,0.042
		c-0.084-0.084-0.084-0.21-0.084-0.252c0,0,0.7-0.546,2.227-0.546c0,0,0.028,0.14,0.028,0.435c0,0.644-0.126,2.031-0.967,4.244
		c0,0,0.042,0.112,0.224,0.112c0,0,1.121-4.791,3.726-4.791c0.729,0,1.135,0.588,1.135,1.359c0,3.992-2.718,5.883-4.342,5.883
		c-0.49,0-0.617-0.07-0.883-0.098c-0.168,0.813-0.238,1.653-0.238,2.465c0,0.729,0.126,1.415,0.532,1.919
		c-0.266,0.056-0.546,0.084-0.785,0.084c-0.462,0-0.813-0.07-0.854-0.084c-0.112-0.504-0.154-1.05-0.154-1.611
		c0-2.479,0.882-5.393,1.247-7.214C18.681,6.158,18.723,5.863,18.723,5.611z M19.045,10.149c0.196,0.098,0.393,0.267,0.896,0.267
		c0.588,0,1.191-0.098,1.611-0.49c0.967-0.883,1.387-2.662,1.387-3.811c0-0.826-0.266-1.289-0.686-1.289
		c-1.149,0-2.241,2.255-2.97,4.524C19.213,9.562,19.087,9.939,19.045,10.149z"/>
	<path fill="#8D0700" d="M25.568,7.796c0.238-1.022,0.658-1.849,1.232-2.507c0.896-1.009,2.143-1.513,2.97-1.513
		c1.499,0,2.073,0.336,2.073,0.336s-0.182,0.252-0.462,1.709c-0.21,1.093-0.378,2.031-0.49,2.983
		c-0.028,0.196-0.042,0.406-0.042,0.561c0,0.742,0.28,0.938,0.616,0.938c0.112,0,0.224-0.028,0.35-0.056
		c0.056,0.042,0.084,0.168,0.084,0.252c0,0-0.756,0.518-2.311,0.546c0,0-0.014-0.14-0.014-0.378c0-0.687,0.126-2.255,1.051-4.482
		c0,0-0.042-0.112-0.224-0.112c0,0-0.28,1.037-0.827,2.199c-0.63,1.331-1.583,2.773-2.969,2.773c-0.42,0-0.714-0.21-0.925-0.546
		c-0.168-0.28-0.28-0.714-0.28-1.177C25.4,8.791,25.456,8.287,25.568,7.796z M30.429,4.645c-0.196-0.098-0.602-0.182-0.98-0.182
		c-0.813,0-1.597,0.435-2.087,1.107c-0.574,0.798-0.869,1.933-0.869,3.067c0,0.532,0.14,1.415,0.798,1.415
		c0.672,0,1.373-0.925,1.877-1.947c0.364-0.742,0.659-1.527,0.785-2.059C30.163,5.177,30.429,4.645,30.429,4.645z"/>
	<path fill="#8D0700" d="M39.39,5.233c0,1.737-2.186,1.905-2.186,1.905v0.07c0,0,1.737,0.126,1.737,1.597
		c0,1.429-1.667,2.27-2.984,2.27c-1.541,0-2.437-0.869-2.437-2.465c0-2.213,1.205-4.777,4.118-4.777
		C38.591,3.832,39.39,4.252,39.39,5.233z M35.958,7.488c-0.49,0-0.938,0.028-1.219,0.084c0,0-0.042,0.294-0.042,0.729
		c0,0.924,0.224,2.283,1.527,2.283c1.121,0,1.555-0.911,1.555-1.737C37.779,7.656,36.84,7.488,35.958,7.488z M35.243,7.082
		c1.135,0,2.97-0.406,2.97-1.849c0-0.63-0.364-0.924-0.869-0.924c-0.868,0-2.199,0.953-2.493,2.759
		C34.963,7.082,35.103,7.082,35.243,7.082z"/>
	<path fill="#8D0700" d="M40.898,7.796c0.238-1.022,0.658-1.849,1.232-2.507c0.896-1.009,2.143-1.513,2.97-1.513
		c1.499,0,2.073,0.336,2.073,0.336s-0.182,0.252-0.462,1.709c-0.21,1.093-0.378,2.031-0.49,2.983
		c-0.028,0.196-0.042,0.406-0.042,0.561c0,0.742,0.28,0.938,0.616,0.938c0.112,0,0.224-0.028,0.35-0.056
		c0.056,0.042,0.084,0.168,0.084,0.252c0,0-0.756,0.518-2.311,0.546c0,0-0.014-0.14-0.014-0.378c0-0.687,0.126-2.255,1.051-4.482
		c0,0-0.042-0.112-0.224-0.112c0,0-0.28,1.037-0.827,2.199c-0.63,1.331-1.583,2.773-2.969,2.773c-0.42,0-0.714-0.21-0.925-0.546
		c-0.168-0.28-0.28-0.714-0.28-1.177C40.73,8.791,40.786,8.287,40.898,7.796z M45.759,4.645c-0.196-0.098-0.602-0.182-0.98-0.182
		c-0.813,0-1.597,0.435-2.087,1.107c-0.574,0.798-0.869,1.933-0.869,3.067c0,0.532,0.14,1.415,0.798,1.415
		c0.672,0,1.373-0.925,1.877-1.947c0.364-0.742,0.659-1.527,0.785-2.059C45.493,5.177,45.759,4.645,45.759,4.645z"/>
	<path fill="#8D0700" d="M56.72,10.023c0-1.849,0.924-3.936,0.924-4.623c0-0.406-0.28-0.588-0.532-0.588
		c-1.19,0-2.969,3.656-2.969,5.491c0,0.182,0.028,0.392,0.098,0.63c-0.238,0.042-0.448,0.07-0.658,0.07
		c-0.448,0-0.784-0.07-0.827-0.084v-0.182c0-1.891,0.771-3.417,0.771-4.986c0-0.883-0.378-1.121-0.714-1.121
		c-0.084,0-0.154,0.014-0.224,0.028c-0.084-0.084-0.084-0.21-0.084-0.252c0,0,0.7-0.546,2.227-0.546c0,0,0.014,0.112,0.014,0.308
		c0,0.532-0.126,2.283-0.995,4.594c0,0,0.056,0.112,0.238,0.112c0,0,0.14-0.49,0.392-1.163c0.561-1.485,1.723-3.852,3.418-3.852
		c0.729,0,1.051,0.42,1.051,1.05s-0.561,1.737-0.896,2.872c-0.098,0.336-0.196,0.743-0.238,0.98c0,0,0.098,0.112,0.252,0.112
		c0,0,0.21-0.672,0.308-0.953c0.098-0.294,0.238-0.588,0.393-0.966c0.602-1.415,1.737-3.096,3.096-3.096
		c0.742,0,1.079,0.392,1.079,1.022c0,0.854-0.896,3.012-0.896,4.286c0,0.827,0.504,0.967,0.826,0.967
		c0.098,0,0.224-0.028,0.266-0.042c0.07,0.098,0.07,0.196,0.07,0.28c-0.785,0.616-2.255,0.63-2.297,0.63
		c-0.07-0.28-0.112-0.616-0.112-0.938c0-0.616,0.084-1.218,0.21-1.793c0.28-1.247,0.728-2.409,0.728-2.857
		c0-0.378-0.224-0.602-0.56-0.602c-0.588,0-1.429,1.064-2.045,2.325c-0.504,1.05-0.91,2.241-0.91,3.067
		c0,0.252,0.042,0.561,0.112,0.729c-0.238,0.042-0.462,0.07-0.658,0.07c-0.434,0-0.742-0.07-0.785-0.084
		C56.734,10.64,56.72,10.29,56.72,10.023z"/>
	<path fill="#8D0700" d="M70.637,5.233c0,1.737-2.186,1.905-2.186,1.905v0.07c0,0,1.737,0.126,1.737,1.597
		c0,1.429-1.667,2.27-2.984,2.27c-1.541,0-2.437-0.869-2.437-2.465c0-2.213,1.205-4.777,4.118-4.777
		C69.838,3.832,70.637,4.252,70.637,5.233z M67.205,7.488c-0.49,0-0.938,0.028-1.219,0.084c0,0-0.042,0.294-0.042,0.729
		c0,0.924,0.224,2.283,1.527,2.283c1.121,0,1.555-0.911,1.555-1.737C69.026,7.656,68.088,7.488,67.205,7.488z M66.491,7.082
		c1.135,0,2.97-0.406,2.97-1.849c0-0.63-0.364-0.924-0.869-0.924c-0.868,0-2.199,0.953-2.493,2.759
		C66.21,7.082,66.351,7.082,66.491,7.082z"/>
	<path fill="#8D0700" d="M78.183,4.827c0.266,0.42,0.406,1.079,0.406,1.639c0,1.331-0.392,2.325-0.966,3.054
		c-0.477,0.602-1.037,1.022-1.625,1.274c-0.658,0.266-0.995,0.294-1.527,0.294c-0.504,0-0.911-0.112-1.247-0.309
		c-0.771-0.448-1.121-1.345-1.121-2.381c0-1.373,0.49-2.521,1.148-3.25c0.854-0.953,1.989-1.359,2.816-1.359
		C77.133,3.79,77.735,4.126,78.183,4.827z M73.336,8.203c0,0.798,0.224,1.513,0.603,1.933c0.224,0.252,0.504,0.35,0.827,0.35
		c0.756,0,1.442-0.448,1.905-1.19c0.448-0.714,0.687-1.653,0.687-2.718c0-0.49-0.126-0.938-0.238-1.247
		c-0.252-0.658-0.729-0.966-1.19-0.966C74.401,4.365,73.336,6.186,73.336,8.203z"/>
	<path fill="#8D0700" d="M81.232,5.611c0-0.827-0.351-1.022-0.659-1.022c-0.098,0-0.196,0.014-0.266,0.042
		c-0.084-0.084-0.084-0.21-0.084-0.252c0,0,0.7-0.546,2.227-0.546c0,0,0.028,0.14,0.028,0.435c0,0.644-0.126,2.031-0.967,4.244
		c0,0,0.042,0.112,0.224,0.112c0,0,1.121-4.791,3.726-4.791c0.729,0,1.135,0.588,1.135,1.359c0,3.992-2.718,5.883-4.342,5.883
		c-0.49,0-0.617-0.07-0.883-0.098c-0.168,0.813-0.238,1.653-0.238,2.465c0,0.729,0.126,1.415,0.532,1.919
		c-0.266,0.056-0.546,0.084-0.785,0.084c-0.462,0-0.813-0.07-0.854-0.084c-0.112-0.504-0.154-1.05-0.154-1.611
		c0-2.479,0.882-5.393,1.247-7.214C81.19,6.158,81.232,5.863,81.232,5.611z M81.554,10.149c0.196,0.098,0.393,0.267,0.896,0.267
		c0.588,0,1.191-0.098,1.611-0.49c0.967-0.883,1.387-2.662,1.387-3.811c0-0.826-0.266-1.289-0.686-1.289
		c-1.149,0-2.241,2.255-2.97,4.524C81.723,9.562,81.596,9.939,81.554,10.149z"/>
	<path fill="#8D0700" d="M88.33,8.595c0.266-0.854,0.588-1.681,0.771-2.549c0.042-0.238,0.07-0.42,0.07-0.588
		c0-0.672-0.35-0.854-0.672-0.854c-0.084,0-0.168,0.014-0.238,0.028c-0.084-0.084-0.084-0.21-0.084-0.252c0,0,0.7-0.546,2.227-0.546
		c0,0,0.042,0.238,0.042,0.63c0,0.462-0.056,1.135-0.294,1.961c-0.238,0.826-0.784,2.269-0.784,2.969
		c0,0.813,0.336,1.009,0.63,1.009c0.084,0,0.168-0.014,0.238-0.042c0.084,0.084,0.084,0.252,0.084,0.252
		c-0.336,0.224-1.149,0.448-1.835,0.448c-0.168,0-0.322-0.014-0.462-0.042c0,0-0.028-0.168-0.028-0.462
		C87.994,10.136,88.049,9.449,88.33,8.595z M89.436,1.353c0,0.616,0.378,0.84,0.841,0.84c0.462,0,0.854-0.224,0.854-0.84
		c0-0.617-0.393-0.854-0.854-0.854C89.814,0.499,89.436,0.736,89.436,1.353z"/>
	<path fill="#8D0700" d="M98.091,5.233c0,1.737-2.186,1.905-2.186,1.905v0.07c0,0,1.737,0.126,1.737,1.597
		c0,1.429-1.667,2.27-2.984,2.27c-1.541,0-2.437-0.869-2.437-2.465c0-2.213,1.205-4.777,4.118-4.777
		C97.292,3.832,98.091,4.252,98.091,5.233z M94.659,7.488c-0.49,0-0.938,0.028-1.219,0.084c0,0-0.042,0.294-0.042,0.729
		c0,0.924,0.224,2.283,1.527,2.283c1.121,0,1.555-0.911,1.555-1.737C96.48,7.656,95.541,7.488,94.659,7.488z M93.944,7.082
		c1.135,0,2.97-0.406,2.97-1.849c0-0.63-0.364-0.924-0.869-0.924c-0.868,0-2.199,0.953-2.493,2.759
		C93.664,7.082,93.804,7.082,93.944,7.082z"/>
	<path fill="#8D0700" d="M105.69,5.569c-0.392,2.185-1.289,5.449-2.633,5.449c-0.49,0-0.854-0.252-0.854-0.729
		c0-0.518,0.308-0.868,0.896-0.91c0,0.196,0.21,0.364,0.378,0.364c0.7,0,1.457-1.891,2.017-5.295c0,0-0.182-0.084-0.701-0.084V4.183
		c0-0.084,0.014-0.182,0.21-0.196c0.462-0.042,1.037-0.07,1.527-0.056l0.729,5.365c0,0,2.409-4.356,2.998-5.281
		c0,0,0.938-0.112,1.177-0.112c0,1.765-0.896,3.852-0.896,5.351c0,0.757,0.434,0.896,0.756,0.896c0.14,0,0.266-0.028,0.308-0.042
		c0.07,0.098,0.07,0.28,0.07,0.28c-0.756,0.588-2.297,0.63-2.297,0.63c-0.056-0.238-0.07-0.518-0.07-0.813
		c0-1.485,0.672-3.824,0.91-5.21c-0.924,1.387-2.367,4.034-3.236,5.687c-0.07,0.14-0.14,0.28-0.21,0.406h-0.336L105.69,5.569z"/>
	<path fill="#8D0700" d="M120.225,10.472c0,0.014-0.771,0.561-2.312,0.561c0,0-0.014-0.126-0.014-0.364
		c0-0.672,0.126-2.185,1.05-4.455c0,0-0.042-0.112-0.224-0.112c0,0-0.42,1.177-1.163,2.409c-0.771,1.275-1.891,2.521-3.25,2.521
		c-0.729,0-1.051-0.42-1.051-1.051c0-0.854,1.051-2.885,1.051-4.244c0-0.854-0.448-1.009-0.771-1.009
		c-0.126,0-0.238,0.028-0.28,0.042c-0.07-0.098-0.07-0.28-0.07-0.28c0.686-0.462,1.541-0.63,2.297-0.63
		c0.042,0.126,0.098,0.588,0.098,0.91c0,1.849-1.106,3.992-1.106,4.791c0,0.294,0.252,0.476,0.532,0.476
		c0.742,0,1.555-0.771,2.227-1.835c0.756-1.191,1.317-2.675,1.317-3.642c0-0.252-0.028-0.462-0.098-0.63
		c0.238-0.042,0.462-0.07,0.672-0.07c0.448,0,0.785,0.084,0.827,0.098c0,1.807-0.63,3.417-0.743,4.875
		c-0.014,0.112-0.014,0.224-0.014,0.322c0,0.924,0.364,1.106,0.687,1.106c0.084,0,0.182-0.014,0.252-0.028
		C120.211,10.304,120.225,10.43,120.225,10.472z"/>
	<path fill="#8D0700" d="M126.607,4.126c0.294,0.196,0.518,0.504,0.518,1.008c0,0.63-0.476,0.925-1.022,0.925
		c-0.112,0-0.224-0.014-0.35-0.042c0.028-0.084,0.126-0.406,0.126-0.756c0-0.435-0.154-0.883-0.854-0.883
		c-1.597,0-2.283,2.185-2.283,3.81c0,1.317,0.574,2.059,1.667,2.059c1.092,0,1.933-0.742,1.933-0.742s0.182,0.378,0.182,0.392
		c-0.617,0.63-1.737,1.177-2.9,1.177s-2.059-0.771-2.059-2.479c0-2.619,1.667-4.805,3.488-4.805
		C125.543,3.79,126.173,3.832,126.607,4.126z"/>
	<path fill="#8D0700" d="M132.627,10.023c0-1.849,0.924-3.936,0.924-4.623c0-0.406-0.28-0.588-0.532-0.588
		c-1.19,0-2.969,3.656-2.969,5.491c0,0.182,0.028,0.392,0.098,0.63c-0.238,0.042-0.448,0.07-0.658,0.07
		c-0.448,0-0.784-0.07-0.826-0.084v-0.182c0-1.891,0.77-3.417,0.77-4.986c0-0.883-0.378-1.121-0.714-1.121
		c-0.084,0-0.154,0.014-0.224,0.028c-0.084-0.084-0.084-0.21-0.084-0.252c0,0,0.701-0.546,2.227-0.546c0,0,0.014,0.112,0.014,0.308
		c0,0.532-0.126,2.283-0.995,4.594c0,0,0.056,0.112,0.238,0.112c0,0,0.14-0.49,0.392-1.163c0.561-1.485,1.723-3.852,3.418-3.852
		c0.729,0,1.051,0.42,1.051,1.05s-0.561,1.737-0.896,2.872c-0.098,0.336-0.196,0.743-0.238,0.98c0,0,0.098,0.112,0.252,0.112
		c0,0,0.21-0.672,0.308-0.953c0.098-0.294,0.238-0.588,0.393-0.966c0.602-1.415,1.737-3.096,3.096-3.096
		c0.742,0,1.078,0.392,1.078,1.022c0,0.854-0.896,3.012-0.896,4.286c0,0.827,0.504,0.967,0.827,0.967
		c0.098,0,0.224-0.028,0.266-0.042c0.07,0.098,0.07,0.196,0.07,0.28c-0.785,0.616-2.255,0.63-2.297,0.63
		c-0.07-0.28-0.112-0.616-0.112-0.938c0-0.616,0.084-1.218,0.21-1.793c0.28-1.247,0.728-2.409,0.728-2.857
		c0-0.378-0.224-0.602-0.56-0.602c-0.588,0-1.429,1.064-2.045,2.325c-0.504,1.05-0.911,2.241-0.911,3.067
		c0,0.252,0.042,0.561,0.112,0.729c-0.238,0.042-0.462,0.07-0.658,0.07c-0.434,0-0.742-0.07-0.784-0.084
		C132.641,10.64,132.627,10.29,132.627,10.023z"/>
	<path fill="#8D0700" d="M141.753,7.67c-0.014,0.266-0.014,0.476-0.014,0.672c0.014,0.49,0.126,0.882,0.322,1.232
		c0.266,0.462,0.84,0.672,1.261,0.672c1.232,0,2.017-0.742,2.017-0.742s0.196,0.378,0.182,0.392
		c-0.252,0.294-1.457,1.177-2.801,1.177c-0.588,0-1.079-0.168-1.415-0.448c-0.574-0.49-0.742-1.303-0.742-2.017
		c0-1.737,0.7-3.096,1.555-3.95c0.617-0.616,1.359-0.869,2.017-0.869c0.813,0,1.317,0.168,1.653,0.519
		c0.21,0.21,0.322,0.532,0.322,0.938c0,2.283-3.488,2.423-4.23,2.423H141.753z M145.045,5.373c0-0.771-0.462-0.995-1.008-0.995
		c-1.891,0-2.241,2.886-2.241,2.886C143.952,7.236,145.045,6.396,145.045,5.373z"/>
	<path fill="#8D0700" d="M153.25,11.046c-0.854,0-0.981-0.686-0.981-1.218c0-0.827,0.267-2.031,0.911-3.53
		c0,0-0.042-0.112-0.224-0.112c0,0-1.723,4.847-4.398,4.847c-0.729,0-1.05-0.42-1.05-1.051c0-0.854,1.037-2.815,1.037-4.244
		c0-0.854-0.49-0.995-0.813-0.995c-0.112,0-0.196,0.014-0.238,0.028c-0.07-0.098-0.07-0.28-0.07-0.28
		c0.756-0.588,2.283-0.63,2.297-0.63c0.07,0.28,0.098,0.588,0.098,0.91c0,1.849-1.093,3.992-1.093,4.791
		c0,0.294,0.252,0.476,0.533,0.476c1.513,0,3.53-3.558,3.53-5.477c0-0.252-0.028-0.462-0.098-0.63
		c0.238-0.042,0.462-0.07,0.672-0.07c0.448,0,0.785,0.084,0.827,0.098c0,0.602-0.07,1.205-0.168,1.793
		c-0.238,1.331-0.574,2.479-0.574,3.74c0,0.28,0.014,0.561,0.056,0.827c0.028,0.014,0.07,0.014,0.14,0.014
		c0.224,0,0.644-0.056,0.798-0.154v1.597c0,0.574-0.182,1.821-2.759,1.821c-1.079,0-1.429,0.392-1.429,0.924
		c0,0.084,0.014,0.126,0.014,0.154l-0.084,0.014c-0.056,0.014-0.098,0.014-0.126,0.014c-0.112,0-0.154-0.056-0.196-0.224
		c-0.056-0.224-0.098-0.434-0.098-0.645c0-0.672,0.42-1.205,1.863-1.289c1.835-0.112,2.283-0.687,2.325-1.709
		C153.81,10.934,153.487,11.046,153.25,11.046z"/>
	<path fill="#8D0700" d="M160.333,10.023c0-1.849,0.924-3.936,0.924-4.623c0-0.406-0.28-0.588-0.532-0.588
		c-1.19,0-2.969,3.656-2.969,5.491c0,0.182,0.028,0.392,0.098,0.63c-0.238,0.042-0.448,0.07-0.658,0.07
		c-0.448,0-0.784-0.07-0.827-0.084v-0.182c0-1.891,0.771-3.417,0.771-4.986c0-0.883-0.378-1.121-0.714-1.121
		c-0.084,0-0.154,0.014-0.224,0.028c-0.084-0.084-0.084-0.21-0.084-0.252c0,0,0.7-0.546,2.227-0.546c0,0,0.014,0.112,0.014,0.308
		c0,0.532-0.126,2.283-0.995,4.594c0,0,0.056,0.112,0.238,0.112c0,0,0.14-0.49,0.392-1.163c0.561-1.485,1.723-3.852,3.418-3.852
		c0.729,0,1.051,0.42,1.051,1.05s-0.561,1.737-0.896,2.872c-0.098,0.336-0.196,0.743-0.238,0.98c0,0,0.098,0.112,0.252,0.112
		c0,0,0.21-0.672,0.308-0.953c0.098-0.294,0.238-0.588,0.393-0.966c0.602-1.415,1.737-3.096,3.096-3.096
		c0.742,0,1.079,0.392,1.079,1.022c0,0.854-0.896,3.012-0.896,4.286c0,0.827,0.504,0.967,0.826,0.967
		c0.098,0,0.224-0.028,0.266-0.042c0.07,0.098,0.07,0.196,0.07,0.28c-0.785,0.616-2.255,0.63-2.297,0.63
		c-0.07-0.28-0.112-0.616-0.112-0.938c0-0.616,0.084-1.218,0.21-1.793c0.28-1.247,0.728-2.409,0.728-2.857
		c0-0.378-0.224-0.602-0.56-0.602c-0.588,0-1.429,1.064-2.045,2.325c-0.504,1.05-0.91,2.241-0.91,3.067
		c0,0.252,0.042,0.561,0.112,0.729c-0.238,0.042-0.462,0.07-0.658,0.07c-0.434,0-0.742-0.07-0.785-0.084
		C160.347,10.64,160.333,10.29,160.333,10.023z"/>
	<path fill="#8D0700" d="M174.249,5.233c0,1.737-2.186,1.905-2.186,1.905v0.07c0,0,1.737,0.126,1.737,1.597
		c0,1.429-1.667,2.27-2.984,2.27c-1.541,0-2.437-0.869-2.437-2.465c0-2.213,1.205-4.777,4.118-4.777
		C173.45,3.832,174.249,4.252,174.249,5.233z M170.817,7.488c-0.49,0-0.938,0.028-1.219,0.084c0,0-0.042,0.294-0.042,0.729
		c0,0.924,0.224,2.283,1.527,2.283c1.121,0,1.555-0.911,1.555-1.737C172.638,7.656,171.699,7.488,170.817,7.488z M170.103,7.082
		c1.135,0,2.97-0.406,2.97-1.849c0-0.63-0.364-0.924-0.869-0.924c-0.868,0-2.199,0.953-2.493,2.759
		C169.822,7.082,169.962,7.082,170.103,7.082z"/>
	<path fill="#8D0700" d="M175.758,7.796c0.238-1.022,0.658-1.849,1.232-2.507c0.896-1.009,2.143-1.513,2.97-1.513
		c1.499,0,2.073,0.336,2.073,0.336s-0.182,0.252-0.462,1.709c-0.21,1.093-0.378,2.031-0.49,2.983
		c-0.028,0.196-0.042,0.406-0.042,0.561c0,0.742,0.28,0.938,0.616,0.938c0.112,0,0.224-0.028,0.35-0.056
		c0.056,0.042,0.084,0.168,0.084,0.252c0,0-0.756,0.518-2.311,0.546c0,0-0.014-0.14-0.014-0.378c0-0.687,0.126-2.255,1.051-4.482
		c0,0-0.042-0.112-0.224-0.112c0,0-0.28,1.037-0.827,2.199c-0.63,1.331-1.583,2.773-2.969,2.773c-0.42,0-0.714-0.21-0.925-0.546
		c-0.168-0.28-0.28-0.714-0.28-1.177C175.589,8.791,175.646,8.287,175.758,7.796z M180.618,4.645
		c-0.196-0.098-0.602-0.182-0.98-0.182c-0.813,0-1.597,0.435-2.087,1.107c-0.574,0.798-0.869,1.933-0.869,3.067
		c0,0.532,0.14,1.415,0.798,1.415c0.672,0,1.373-0.925,1.877-1.947c0.364-0.742,0.659-1.527,0.785-2.059
		C180.352,5.177,180.618,4.645,180.618,4.645z"/>
	<path fill="#8D0700" d="M187.56,7.096l-0.056-0.098c0.014-0.07,0.266-0.308,0.35-0.364c0.28-0.196,0.435-0.266,0.435-0.266
		l10.8-0.098c0,0,0.056,0.056,0.056,0.098c-0.056,0.154-0.518,0.687-0.771,0.729H187.56z"/>
	<path fill="#8D0700" d="M87.518,25.846c-0.854,0-0.981-0.686-0.981-1.218c0-0.827,0.267-2.031,0.911-3.53
		c0,0-0.042-0.112-0.224-0.112c0,0-1.723,4.847-4.398,4.847c-0.729,0-1.05-0.42-1.05-1.051c0-0.854,1.037-2.815,1.037-4.244
		c0-0.854-0.49-0.995-0.813-0.995c-0.112,0-0.196,0.014-0.238,0.028c-0.07-0.098-0.07-0.28-0.07-0.28
		c0.756-0.588,2.283-0.63,2.297-0.63c0.07,0.28,0.098,0.588,0.098,0.91c0,1.849-1.093,3.992-1.093,4.791
		c0,0.294,0.252,0.476,0.533,0.476c1.513,0,3.53-3.558,3.53-5.477c0-0.252-0.028-0.462-0.098-0.63
		c0.238-0.042,0.462-0.07,0.672-0.07c0.448,0,0.785,0.084,0.827,0.098c0,0.602-0.07,1.205-0.168,1.793
		c-0.238,1.331-0.574,2.479-0.574,3.74c0,0.28,0.014,0.561,0.056,0.827c0.028,0.014,0.07,0.014,0.14,0.014
		c0.224,0,0.644-0.056,0.798-0.154v1.597c0,0.574-0.182,1.821-2.759,1.821c-1.079,0-1.429,0.392-1.429,0.924
		c0,0.084,0.014,0.126,0.014,0.154l-0.084,0.014c-0.056,0.014-0.098,0.014-0.126,0.014c-0.112,0-0.154-0.056-0.196-0.224
		c-0.056-0.224-0.098-0.434-0.098-0.645c0-0.672,0.42-1.205,1.863-1.289c1.835-0.112,2.283-0.687,2.325-1.709
		C88.078,25.734,87.756,25.846,87.518,25.846z"/>
	<path fill="#8D0700" d="M91.309,22.47c-0.014,0.266-0.014,0.476-0.014,0.672c0.014,0.49,0.126,0.882,0.322,1.232
		c0.266,0.462,0.84,0.672,1.261,0.672c1.232,0,2.017-0.742,2.017-0.742s0.196,0.378,0.182,0.392
		c-0.252,0.294-1.457,1.177-2.801,1.177c-0.588,0-1.079-0.168-1.415-0.448c-0.574-0.49-0.742-1.303-0.742-2.017
		c0-1.737,0.7-3.096,1.555-3.95c0.617-0.616,1.359-0.869,2.017-0.869c0.813,0,1.317,0.168,1.653,0.519
		c0.21,0.21,0.322,0.532,0.322,0.938c0,2.283-3.488,2.423-4.23,2.423H91.309z M94.601,20.173c0-0.771-0.462-0.995-1.008-0.995
		c-1.891,0-2.241,2.886-2.241,2.886C93.508,22.036,94.601,21.195,94.601,20.173z"/>
	<path fill="#8D0700" d="M104.849,24.823c0-1.849,0.924-3.936,0.924-4.623c0-0.406-0.28-0.588-0.532-0.588
		c-1.19,0-2.969,3.656-2.969,5.491c0,0.182,0.028,0.392,0.098,0.63c-0.238,0.042-0.448,0.07-0.658,0.07
		c-0.448,0-0.784-0.07-0.826-0.084v-0.182c0-1.891,0.77-3.417,0.77-4.986c0-0.883-0.378-1.121-0.714-1.121
		c-0.084,0-0.154,0.014-0.224,0.028c-0.084-0.084-0.084-0.21-0.084-0.252c0,0,0.701-0.546,2.227-0.546c0,0,0.014,0.112,0.014,0.308
		c0,0.532-0.126,2.283-0.995,4.594c0,0,0.056,0.112,0.238,0.112c0,0,0.14-0.49,0.392-1.163c0.561-1.485,1.723-3.852,3.418-3.852
		c0.729,0,1.051,0.42,1.051,1.05s-0.561,1.737-0.896,2.872c-0.098,0.336-0.196,0.743-0.238,0.98c0,0,0.098,0.112,0.252,0.112
		c0,0,0.21-0.672,0.308-0.953c0.098-0.294,0.238-0.588,0.393-0.966c0.602-1.415,1.737-3.096,3.096-3.096
		c0.742,0,1.078,0.392,1.078,1.022c0,0.854-0.896,3.012-0.896,4.286c0,0.827,0.504,0.967,0.827,0.967
		c0.098,0,0.224-0.028,0.266-0.042c0.07,0.098,0.07,0.196,0.07,0.28c-0.785,0.616-2.255,0.63-2.297,0.63
		c-0.07-0.28-0.112-0.616-0.112-0.938c0-0.616,0.084-1.218,0.21-1.793c0.28-1.247,0.728-2.409,0.728-2.857
		c0-0.378-0.224-0.602-0.56-0.602c-0.588,0-1.429,1.064-2.045,2.325c-0.504,1.05-0.911,2.241-0.911,3.067
		c0,0.252,0.042,0.561,0.112,0.729c-0.238,0.042-0.462,0.07-0.658,0.07c-0.434,0-0.742-0.07-0.784-0.084
		C104.863,25.44,104.849,25.089,104.849,24.823z"/>
	<path fill="#8D0700" d="M112.98,22.596c0.238-1.022,0.658-1.849,1.232-2.507c0.896-1.009,2.143-1.513,2.97-1.513
		c1.499,0,2.073,0.336,2.073,0.336s-0.182,0.252-0.462,1.709c-0.21,1.093-0.378,2.031-0.49,2.983
		c-0.028,0.196-0.042,0.406-0.042,0.561c0,0.742,0.28,0.938,0.616,0.938c0.112,0,0.224-0.028,0.35-0.056
		c0.056,0.042,0.084,0.168,0.084,0.252c0,0-0.756,0.518-2.311,0.546c0,0-0.014-0.14-0.014-0.378c0-0.687,0.126-2.255,1.051-4.482
		c0,0-0.042-0.112-0.224-0.112c0,0-0.28,1.037-0.827,2.199c-0.63,1.331-1.583,2.773-2.969,2.773c-0.42,0-0.715-0.21-0.925-0.546
		c-0.168-0.28-0.28-0.714-0.28-1.177C112.812,23.591,112.868,23.086,112.98,22.596z M117.84,19.444
		c-0.196-0.098-0.602-0.182-0.98-0.182c-0.813,0-1.597,0.435-2.087,1.107c-0.575,0.798-0.869,1.933-0.869,3.067
		c0,0.532,0.14,1.415,0.798,1.415c0.672,0,1.373-0.925,1.877-1.947c0.364-0.742,0.659-1.527,0.785-2.059
		C117.574,19.977,117.84,19.444,117.84,19.444z"/>
	<path fill="#8D0700" d="M123.089,22.414h-0.378c-0.182,0.7-0.35,1.471-0.35,2.129c0,0.532,0.042,0.91,0.224,1.176
		c-0.308,0.07-0.588,0.084-0.827,0.084c-0.434,0-0.714-0.07-0.714-0.07c0-1.919,1.037-3.838,1.037-5.337
		c0-0.742-0.42-0.882-0.743-0.882c-0.154,0-0.28,0.028-0.322,0.042c-0.07-0.098-0.07-0.28-0.07-0.28
		c0.756-0.588,2.297-0.63,2.297-0.63c0.056,0.238,0.07,0.519,0.07,0.813c0,0.518-0.07,1.093-0.224,1.653
		c-0.07,0.238-0.168,0.532-0.252,0.854h0.364c0.546,0,1.205-0.07,1.695-1.093c0.574-1.19,0.924-2.269,1.905-2.269
		c0.658,0,0.896,0.434,0.896,0.756c0,0.504-0.252,0.869-0.938,0.883c0-0.014-0.084-0.322-0.477-0.322
		c-0.35,0-0.504,0.28-0.882,0.994c-0.294,0.561-0.785,1.177-1.443,1.275c0.378,0.014,1.064,0.266,1.569,1.331
		c0.49,1.023,0.532,1.611,1.289,1.611c0.098,0,0.196-0.014,0.322-0.042c0,0,0.126,0.056,0.126,0.266c0,0-0.42,0.519-1.176,0.519
		c-1.219,0-1.373-1.247-1.695-2.115C124.098,22.975,123.79,22.414,123.089,22.414z"/>
	<path fill="#8D0700" d="M134.543,19.626c0.266,0.42,0.406,1.079,0.406,1.639c0,1.331-0.392,2.325-0.966,3.054
		c-0.477,0.602-1.037,1.022-1.625,1.274c-0.658,0.266-0.995,0.294-1.527,0.294c-0.504,0-0.911-0.112-1.247-0.309
		c-0.771-0.448-1.121-1.345-1.121-2.381c0-1.373,0.49-2.521,1.148-3.25c0.854-0.953,1.989-1.359,2.815-1.359
		C133.493,18.59,134.095,18.926,134.543,19.626z M129.696,23.002c0,0.798,0.224,1.513,0.603,1.933
		c0.224,0.252,0.504,0.35,0.827,0.35c0.756,0,1.442-0.448,1.905-1.19c0.448-0.714,0.687-1.653,0.687-2.718
		c0-0.49-0.126-0.938-0.238-1.247c-0.252-0.658-0.729-0.966-1.19-0.966C130.761,19.165,129.696,20.985,129.696,23.002z"/>
	<path fill="#8D0700" d="M141.066,20.635c0.392-0.504,0.462-1.345,0.476-1.989c0.617,0,1.079,0.112,1.079,0.112
		c0,0.056,0.014,0.154,0.014,0.238c0,1.303-0.813,3.236-0.924,4.566l2.241-2.885c0.448-1.037,1.373-2.045,2.381-2.045
		c0.798,0,1.19,0.49,1.19,0.953c0,0.672-0.434,0.911-0.967,0.911c-0.084,0-0.168,0-0.252-0.014c0.014-0.126,0.014-0.252,0.014-0.392
		c0-0.434-0.084-0.854-0.477-0.854c-0.784,0-1.387,2.101-1.387,3.67c0,1.275,0.308,2.101,1.079,2.101c0.28,0,0.603-0.07,0.827-0.21
		l0.07,0.336c0,0-0.546,0.687-1.597,0.687c-1.135,0-1.429-0.98-1.429-2.017c0-0.798,0.154-1.639,0.294-2.129l-1.667,2.185
		c-0.322,0.42-0.42,0.826-0.42,1.499c0,0.14,0,0.294,0.014,0.462c-0.014,0-0.14,0.014-0.196,0.014c-0.504,0-0.869-0.098-0.882-0.098
		c-0.028-0.14-0.042-0.308-0.042-0.518c0-1.037,0.336-2.872,0.7-4.076l-2.129,2.647c-0.448,1.037-1.387,2.031-2.395,2.031
		c-0.798,0-1.191-0.49-1.191-0.953c0-0.672,0.435-0.91,0.967-0.91c0.084,0,0.168,0,0.252,0.014
		c-0.014,0.126-0.014,0.252-0.014,0.393c0,0.434,0.084,0.854,0.477,0.854c0.784,0,1.387-2.087,1.387-3.656
		c0-1.274-0.308-2.115-1.079-2.115c-0.28,0-0.603,0.07-0.827,0.21l-0.07-0.336c0,0,0.546-0.687,1.597-0.687
		c1.135,0,1.429,0.995,1.429,2.031c0,0.798-0.14,1.667-0.28,2.157L141.066,20.635z"/>
	<path fill="#8D0700" d="M154.49,20.369c-0.392,2.185-1.289,5.449-2.633,5.449c-0.49,0-0.854-0.252-0.854-0.729
		c0-0.518,0.308-0.868,0.896-0.91c0,0.196,0.21,0.364,0.378,0.364c0.7,0,1.457-1.891,2.017-5.295c0,0-0.182-0.084-0.701-0.084
		v-0.182c0-0.084,0.014-0.182,0.21-0.196c0.462-0.042,1.037-0.07,1.527-0.056l0.729,5.365c0,0,2.409-4.356,2.998-5.281
		c0,0,0.938-0.112,1.177-0.112c0,1.765-0.896,3.852-0.896,5.351c0,0.757,0.434,0.896,0.756,0.896c0.14,0,0.266-0.028,0.308-0.042
		c0.07,0.098,0.07,0.28,0.07,0.28c-0.756,0.588-2.297,0.63-2.297,0.63c-0.056-0.238-0.07-0.518-0.07-0.813
		c0-1.485,0.672-3.824,0.91-5.21c-0.924,1.387-2.367,4.034-3.236,5.687c-0.07,0.14-0.14,0.28-0.21,0.406h-0.336L154.49,20.369z"/>
	<path fill="#8D0700" d="M169.025,25.271c0,0.014-0.771,0.561-2.312,0.561c0,0-0.014-0.126-0.014-0.364
		c0-0.672,0.126-2.185,1.05-4.455c0,0-0.042-0.112-0.224-0.112c0,0-0.42,1.177-1.163,2.409c-0.771,1.275-1.891,2.521-3.25,2.521
		c-0.729,0-1.051-0.42-1.051-1.051c0-0.854,1.051-2.885,1.051-4.244c0-0.854-0.448-1.009-0.771-1.009
		c-0.126,0-0.238,0.028-0.28,0.042c-0.07-0.098-0.07-0.28-0.07-0.28c0.686-0.462,1.541-0.63,2.297-0.63
		c0.042,0.126,0.098,0.588,0.098,0.91c0,1.849-1.106,3.992-1.106,4.791c0,0.294,0.252,0.476,0.532,0.476
		c0.742,0,1.555-0.771,2.227-1.835c0.756-1.191,1.317-2.675,1.317-3.642c0-0.252-0.028-0.462-0.098-0.63
		c0.238-0.042,0.462-0.07,0.672-0.07c0.448,0,0.785,0.084,0.827,0.098c0,1.807-0.63,3.417-0.743,4.875
		c-0.014,0.112-0.014,0.224-0.014,0.322c0,0.924,0.364,1.106,0.687,1.106c0.084,0,0.182-0.014,0.252-0.028
		C169.011,25.104,169.025,25.229,169.025,25.271z"/>
	<path fill="#8D0700" d="M175.408,18.926c0.294,0.196,0.518,0.504,0.518,1.008c0,0.63-0.476,0.925-1.022,0.925
		c-0.112,0-0.224-0.014-0.35-0.042c0.028-0.084,0.126-0.406,0.126-0.756c0-0.435-0.154-0.883-0.854-0.883
		c-1.597,0-2.283,2.185-2.283,3.81c0,1.317,0.574,2.059,1.667,2.059c1.092,0,1.933-0.742,1.933-0.742s0.182,0.378,0.182,0.392
		c-0.617,0.63-1.737,1.177-2.9,1.177s-2.059-0.771-2.059-2.479c0-2.619,1.667-4.805,3.488-4.805
		C174.343,18.59,174.973,18.632,175.408,18.926z"/>
	<path fill="#8D0700" d="M181.427,24.823c0-1.849,0.924-3.936,0.924-4.623c0-0.406-0.28-0.588-0.532-0.588
		c-1.19,0-2.969,3.656-2.969,5.491c0,0.182,0.028,0.392,0.098,0.63c-0.238,0.042-0.448,0.07-0.658,0.07
		c-0.448,0-0.784-0.07-0.826-0.084v-0.182c0-1.891,0.77-3.417,0.77-4.986c0-0.883-0.378-1.121-0.714-1.121
		c-0.084,0-0.154,0.014-0.224,0.028c-0.084-0.084-0.084-0.21-0.084-0.252c0,0,0.701-0.546,2.227-0.546c0,0,0.014,0.112,0.014,0.308
		c0,0.532-0.126,2.283-0.995,4.594c0,0,0.056,0.112,0.238,0.112c0,0,0.14-0.49,0.392-1.163c0.561-1.485,1.723-3.852,3.418-3.852
		c0.729,0,1.051,0.42,1.051,1.05s-0.561,1.737-0.896,2.872c-0.098,0.336-0.196,0.743-0.238,0.98c0,0,0.098,0.112,0.252,0.112
		c0,0,0.21-0.672,0.308-0.953c0.098-0.294,0.238-0.588,0.393-0.966c0.602-1.415,1.737-3.096,3.096-3.096
		c0.742,0,1.078,0.392,1.078,1.022c0,0.854-0.896,3.012-0.896,4.286c0,0.827,0.504,0.967,0.827,0.967
		c0.098,0,0.224-0.028,0.266-0.042c0.07,0.098,0.07,0.196,0.07,0.28c-0.785,0.616-2.255,0.63-2.297,0.63
		c-0.07-0.28-0.112-0.616-0.112-0.938c0-0.616,0.084-1.218,0.21-1.793c0.28-1.247,0.728-2.409,0.728-2.857
		c0-0.378-0.224-0.602-0.56-0.602c-0.588,0-1.429,1.064-2.045,2.325c-0.504,1.05-0.911,2.241-0.911,3.067
		c0,0.252,0.042,0.561,0.112,0.729c-0.238,0.042-0.462,0.07-0.658,0.07c-0.434,0-0.742-0.07-0.784-0.084
		C181.441,25.44,181.427,25.089,181.427,24.823z"/>
	<path fill="#8D0700" d="M190.553,22.47c-0.014,0.266-0.014,0.476-0.014,0.672c0.014,0.49,0.126,0.882,0.322,1.232
		c0.266,0.462,0.84,0.672,1.261,0.672c1.232,0,2.017-0.742,2.017-0.742s0.196,0.378,0.182,0.392
		c-0.252,0.294-1.457,1.177-2.801,1.177c-0.588,0-1.079-0.168-1.415-0.448c-0.574-0.49-0.742-1.303-0.742-2.017
		c0-1.737,0.7-3.096,1.555-3.95c0.617-0.616,1.359-0.869,2.017-0.869c0.813,0,1.317,0.168,1.653,0.519
		c0.21,0.21,0.322,0.532,0.322,0.938c0,2.283-3.488,2.423-4.23,2.423H190.553z M193.845,20.173c0-0.771-0.462-0.995-1.008-0.995
		c-1.891,0-2.241,2.886-2.241,2.886C192.752,22.036,193.845,21.195,193.845,20.173z"/>
	<path fill="#8D0700" d="M202.05,25.846c-0.854,0-0.981-0.686-0.981-1.218c0-0.827,0.266-2.031,0.911-3.53
		c0,0-0.042-0.112-0.224-0.112c0,0-1.723,4.847-4.398,4.847c-0.728,0-1.05-0.42-1.05-1.051c0-0.854,1.037-2.815,1.037-4.244
		c0-0.854-0.491-0.995-0.813-0.995c-0.112,0-0.196,0.014-0.238,0.028c-0.07-0.098-0.07-0.28-0.07-0.28
		c0.756-0.588,2.283-0.63,2.297-0.63c0.07,0.28,0.098,0.588,0.098,0.91c0,1.849-1.092,3.992-1.092,4.791
		c0,0.294,0.252,0.476,0.532,0.476c1.513,0,3.53-3.558,3.53-5.477c0-0.252-0.028-0.462-0.098-0.63
		c0.238-0.042,0.462-0.07,0.672-0.07c0.448,0,0.785,0.084,0.827,0.098c0,0.602-0.07,1.205-0.168,1.793
		c-0.238,1.331-0.574,2.479-0.574,3.74c0,0.28,0.014,0.561,0.056,0.827c0.028,0.014,0.07,0.014,0.14,0.014
		c0.224,0,0.644-0.056,0.798-0.154v1.597c0,0.574-0.182,1.821-2.759,1.821c-1.079,0-1.429,0.392-1.429,0.924
		c0,0.084,0.014,0.126,0.014,0.154l-0.084,0.014c-0.056,0.014-0.098,0.014-0.126,0.014c-0.112,0-0.154-0.056-0.196-0.224
		c-0.056-0.224-0.098-0.434-0.098-0.645c0-0.672,0.42-1.205,1.863-1.289c1.835-0.112,2.283-0.687,2.325-1.709
		C202.61,25.734,202.288,25.846,202.05,25.846z"/>
	<path fill="#8D0700" d="M209.132,24.823c0-1.849,0.924-3.936,0.924-4.623c0-0.406-0.28-0.588-0.532-0.588
		c-1.19,0-2.969,3.656-2.969,5.491c0,0.182,0.028,0.392,0.098,0.63c-0.238,0.042-0.448,0.07-0.658,0.07
		c-0.448,0-0.784-0.07-0.827-0.084v-0.182c0-1.891,0.771-3.417,0.771-4.986c0-0.883-0.378-1.121-0.714-1.121
		c-0.084,0-0.154,0.014-0.224,0.028c-0.084-0.084-0.084-0.21-0.084-0.252c0,0,0.7-0.546,2.227-0.546c0,0,0.014,0.112,0.014,0.308
		c0,0.532-0.126,2.283-0.995,4.594c0,0,0.056,0.112,0.238,0.112c0,0,0.14-0.49,0.392-1.163c0.561-1.485,1.723-3.852,3.418-3.852
		c0.729,0,1.051,0.42,1.051,1.05s-0.561,1.737-0.896,2.872c-0.098,0.336-0.196,0.743-0.238,0.98c0,0,0.098,0.112,0.252,0.112
		c0,0,0.21-0.672,0.308-0.953c0.098-0.294,0.238-0.588,0.393-0.966c0.602-1.415,1.737-3.096,3.096-3.096
		c0.742,0,1.079,0.392,1.079,1.022c0,0.854-0.896,3.012-0.896,4.286c0,0.827,0.504,0.967,0.826,0.967
		c0.098,0,0.224-0.028,0.266-0.042c0.07,0.098,0.07,0.196,0.07,0.28c-0.785,0.616-2.255,0.63-2.297,0.63
		c-0.07-0.28-0.112-0.616-0.112-0.938c0-0.616,0.084-1.218,0.21-1.793c0.28-1.247,0.728-2.409,0.728-2.857
		c0-0.378-0.224-0.602-0.56-0.602c-0.588,0-1.429,1.064-2.045,2.325c-0.504,1.05-0.91,2.241-0.91,3.067
		c0,0.252,0.042,0.561,0.112,0.729c-0.238,0.042-0.462,0.07-0.658,0.07c-0.434,0-0.742-0.07-0.785-0.084
		C209.146,25.44,209.132,25.089,209.132,24.823z"/>
	<path fill="#8D0700" d="M223.049,20.033c0,1.737-2.186,1.905-2.186,1.905v0.07c0,0,1.737,0.126,1.737,1.597
		c0,1.429-1.667,2.27-2.984,2.27c-1.541,0-2.437-0.869-2.437-2.465c0-2.213,1.205-4.777,4.118-4.777
		C222.25,18.632,223.049,19.052,223.049,20.033z M219.617,22.288c-0.49,0-0.938,0.028-1.219,0.084c0,0-0.042,0.294-0.042,0.729
		c0,0.924,0.224,2.283,1.527,2.283c1.121,0,1.555-0.911,1.555-1.737C221.438,22.456,220.5,22.288,219.617,22.288z M218.903,21.882
		c1.135,0,2.97-0.406,2.97-1.849c0-0.63-0.364-0.924-0.869-0.924c-0.868,0-2.199,0.953-2.493,2.759
		C218.623,21.882,218.763,21.882,218.903,21.882z"/>
	<path fill="#8D0700" d="M230.595,19.626c0.266,0.42,0.406,1.079,0.406,1.639c0,1.331-0.392,2.325-0.966,3.054
		c-0.477,0.602-1.037,1.022-1.625,1.274c-0.658,0.266-0.995,0.294-1.527,0.294c-0.504,0-0.911-0.112-1.247-0.309
		c-0.771-0.448-1.121-1.345-1.121-2.381c0-1.373,0.49-2.521,1.148-3.25c0.854-0.953,1.989-1.359,2.816-1.359
		C229.545,18.59,230.147,18.926,230.595,19.626z M225.749,23.002c0,0.798,0.224,1.513,0.603,1.933
		c0.224,0.252,0.504,0.35,0.827,0.35c0.756,0,1.442-0.448,1.905-1.19c0.448-0.714,0.687-1.653,0.687-2.718
		c0-0.49-0.126-0.938-0.238-1.247c-0.252-0.658-0.729-0.966-1.19-0.966C226.813,19.165,225.749,20.985,225.749,23.002z"/>
</g>
</svg>
